<svg viewBox="0 0 65 65" xmlns="http://www.w3.org/2000/svg" xml:space="preserve" style="fill-rule:evenodd;clip-rule:evenodd;stroke-linecap:round;stroke-linejoin:round;stroke-miterlimit:1.15854">
  <path style="fill:none" d="M0 0h64v64H0z" transform="translate(.836 .686)"/>
  <path d="M2012.35 3373.99c0-212.7-169.01-385.39-377.2-385.39H377.198C169.017 2988.6 0 3161.29 0 3373.99v770.78c0 212.7 169.017 385.38 377.198 385.38H1635.15c208.19 0 377.2-172.68 377.2-385.38v-770.78Z" style="fill:#ff307b" transform="matrix(.02332 -.00625 .00612 .02283 -13.669 -46.388)"/>
  <path d="M10299.2 1149.2c0-23.64-29.6-42.84-66-42.84H8785.83c-16.78 0-32.11 4.08-43.76 10.79-13.63 7.85 8.24 11.79 8.24 24.54l-31.78 26.79 32.32 26.57c0 15.51-18.28 11.74.74 19.26 9.98 3.95 21.71 6.22 34.24 6.22h1447.37c36.4 0 66-19.19 66-42.84v-28.49Z" style="fill:#ffac18" transform="matrix(.03453 0 0 .05318 -291.55 -29.26)"/>
  <path d="m2331.71 77.516 88.47-88.467 44.91-20.447L2536.68 0l35.58 29.445v39.498l-26.33 66.036-94.42 78.997-119.8-136.46Z" style="fill:#ff3665" transform="scale(.03261) rotate(45 1050.113 -185.156)"/>
  <path d="m2246.53 152.921 85.18-75.405 120.28 136.46-71.04 82.591-134.42-143.646Z" style="fill:#00cbff" transform="scale(.03261) rotate(45 1050.113 -185.156)"/>
  <path d="m1316.18 1120.93-120.39 198.39 35.25 18.2 202.37-113.13-29.56-30.7-42.64-2.27-15.34-43.2-29.69-27.29Z" style="fill:#ffcb9a" transform="scale(.03261) rotate(45 1050.113 -185.156)"/>
  <path d="M10299.2 1149.2c0-23.64-29.6-42.84-66-42.84H8785.83c-16.78 0-32.11 4.08-43.76 10.79-13.63 7.85 8.24 11.79 8.24 24.54l-31.78 26.79 32.32 26.57c0 15.51-18.28 11.74.74 19.26 9.98 3.95 21.71 6.22 34.24 6.22h1447.37c36.4 0 66-19.19 66-42.84v-28.49Z" style="fill:none;stroke:#000;stroke-width:25.28px" transform="matrix(.03453 0 0 .05318 -291.55 -29.26)"/>
  <path d="m8735.58 2961.7-144.09 273.27 274.64-150.74" style="fill:none;stroke:#000;stroke-width:34.76px" transform="scale(.03261) rotate(45 7012.673 -8198.949)"/>
  <path style="fill:none;stroke:#000;stroke-width:278.54px" d="M9204.61 1330.24h1035.73v22.224H9204.61z" transform="matrix(0 .00575 .00022 0 57.004 -23.176)"/>
  <path style="fill:none;stroke:#000;stroke-width:26.69px" d="M9204.61 1330.24h1035.73v22.224H9204.61z" transform="matrix(-.04104 0 0 -.00194 431.038 34.274)"/>
  <path style="fill:none;stroke:#000;stroke-width:26.69px" d="M9204.61 1330.24h1035.73v22.224H9204.61z" transform="matrix(-.04104 0 0 -.00194 431.17 36.27)"/>
  <path style="fill:none;stroke:#000;stroke-width:278.54px" d="M9204.61 1330.24h1035.73v22.224H9204.61z" transform="matrix(0 .00575 .00022 0 55.181 -23.216)"/>
  <path style="fill:none;stroke:#000;stroke-width:278.54px" d="M9204.61 1330.24h1035.73v22.224H9204.61z" transform="matrix(0 .00575 .00022 0 53.357 -23.257)"/>
  <g>
    <path d="M1813.61 7189.78v-186.09c0-21.8-17.7-39.5-39.51-39.5-21.8 0-276.51-118.92-276.51-97.12v426.47" style="fill:#fff" transform="matrix(.07854 0 0 .07994 -97.866 -524.15)"/>
    <path d="M1576.6 7053.17v-186.1c0-21.8-17.7-39.5-39.51-39.5-21.8 0-39.5 17.7-39.5 39.5v376.99" style="fill:#fff" transform="matrix(.07854 0 0 .07994 -97.866 -524.15)"/>
    <path d="M1576.6 7053.17v-186.1c0-21.8-17.7-39.5-39.51-39.5-21.8 0-39.5 17.7-39.5 39.5v376.99" style="fill:none;stroke:#000;stroke-width:18.32px" transform="matrix(.07854 0 0 .07994 -97.866 -524.15)"/>
    <path d="M1576.6 7121.06v-253.99c0-21.8-17.7-39.5-39.51-39.5-21.8 0-39.5 17.7-39.5 39.5v253.99" style="fill:#fff" transform="matrix(.07854 0 0 .07994 -91.66 -529.468)"/>
    <path d="M1576.6 7121.06v-253.99c0-21.8-17.7-39.5-39.51-39.5-21.8 0-39.5 17.7-39.5 39.5v253.99" style="fill:none;stroke:#000;stroke-width:18.32px" transform="matrix(.07854 0 0 .07994 -91.66 -529.468)"/>
    <path d="M1576.6 7186.2v-319.13c0-21.8-17.7-39.5-39.51-39.5-21.8 0-39.5 17.7-39.5 39.5v319.13" style="fill:#fff" transform="matrix(.07854 0 0 .07994 -85.456 -534.786)"/>
    <path d="M1576.6 7186.2v-319.13c0-21.8-17.7-39.5-39.51-39.5-21.8 0-39.5 17.7-39.5 39.5v319.13" style="fill:none;stroke:#000;stroke-width:18.32px" transform="matrix(.07854 0 0 .07994 -85.456 -534.786)"/>
    <path d="M1576.6 7164.79v-297.72c0-21.8-17.7-39.5-39.51-39.5-21.8 0-39.5 17.7-39.5 39.5v252.61" style="fill:#fff" transform="matrix(.07854 0 0 .07994 -79.25 -529.468)"/>
    <path d="M1576.6 7164.79v-297.72c0-21.8-17.7-39.5-39.51-39.5-21.8 0-39.5 17.7-39.5 39.5v252.61" style="fill:none;stroke:#000;stroke-width:18.32px" transform="matrix(.07854 0 0 .07994 -79.25 -529.468)"/>
    <path d="M1576.6 7029.42v-162.35c0-21.8-17.7-39.5-39.51-39.5-21.8 0-39.5 17.7-39.5 39.5v96.95" style="fill:#fff" transform="matrix(.07854 0 0 .07994 -73.045 -507.827)"/>
    <path d="M1576.6 7029.42v-162.35c0-21.8-17.7-39.5-39.51-39.5-21.8 0-39.5 17.7-39.5 39.5v96.95" style="fill:none;stroke:#000;stroke-width:18.32px" transform="matrix(.07854 0 0 .07994 -73.045 -507.827)"/>
  </g>
</svg>
