<svg viewBox="0 0 65 64" xmlns="http://www.w3.org/2000/svg" xml:space="preserve" style="fill-rule:evenodd;clip-rule:evenodd;stroke-linecap:round;stroke-linejoin:round;stroke-miterlimit:1.15854">
  <g transform="translate(.059)">
    <path style="fill:none" d="M0 0h64v64H0z"/>
    <clipPath id="a">
      <path d="M0 0h64v64H0z"/>
    </clipPath>
    <g clip-path="url(#a)">
      <path d="M263.741 29.129c2.086-14.043 14.205-24.83 28.824-24.83 16.083 0 29.141 13.058 29.141 29.142 0 16.083-13.058 29.141-29.141 29.141-16.084 0-29.142-13.058-29.142-29.141 0-.504.013-1.004.038-1.502l9.702-9.702a.878.878 0 0 0 .198-.95.83.83 0 0 0-.188-.282h.001-.001l-.022-.021a.854.854 0 0 0-.635-.273l-.043.002a.885.885 0 0 0-.575.259l-8.157 8.157Zm24.988-2.282 7.64-7.64a.86.86 0 0 0 .014-1.206l-.015-.014.001.001-.003-.003a.858.858 0 0 0-.606-.249l-.043.001a.854.854 0 0 0-.566.251l-7.641 7.641.609-.252c-.006.01-.796 1.284-.609 1.471l.609-1.471.61 1.47Zm-3.888-3.314 10.384-10.384a.861.861 0 0 0 .014-1.206l-.015-.014.001.001-.003-.003a.859.859 0 0 0-.606-.25l-.043.001a.86.86 0 0 0-.566.252l-10.386 10.385.61-.252c-.007.01-.797 1.284-.61 1.471l.61-1.471.61 1.47Z" style="fill:#ffaf18" transform="translate(-260.06)"/>
      <path d="m-7826.29 1596.07-121.11 119.53v147.37c0 20.69 121.11 128.09 121.11 107.4v-374.3Z" style="fill:#ff3881" transform="matrix(.0471 0 0 .0471 385.012 -36.889)"/>
      <path d="m-7826.31 1644.85-121.09-129.3v527.7c37.73 14.18 77.9 22.8 120.92 24.94l.17-423.34Z" style="fill:#ff3881" transform="matrix(.0471 0 0 .0471 397.674 -36.889)"/>
      <path d="m-7826.29 1493.56-121.11 119.52v455.11c42.12-4.93 82.65-15.24 121.11-32.61v-542.02Z" style="fill:#ff3881" transform="matrix(.0471 0 0 .0471 410.335 -36.889)"/>
      <path d="m-7826.29 1232.49-121.11 119.52v607.89c49.15-29.85 88.87-68.07 121.11-112.95v-614.46Z" style="fill:#ff3881" transform="matrix(.0471 0 0 .0471 422.997 -36.889)"/>
      <path d="m-7825.88 1071.77 73.62-2.49-135.39-131.662-137.79 137.352 78.13-2.16.13 752.95-318.31 12.6 12.5 569.65c46.09 36 95.22 56.69 146.86 64.71l-15.84-509.3 297.89-6.81-1.8-884.84Z" style="fill:#00b7ff" transform="rotate(46.157 -104.912 534.52) scale(.04711)"/>
      <circle cx="-7855.33" cy="1470.29" r="638.159" style="fill:none;stroke:#000;stroke-width:37.74px" transform="matrix(.04566 0 0 .04566 388.762 -36.382)"/>
      <path d="m-7826.29 1596.07-121.11 119.53v147.37c0 20.69 121.11 128.09 121.11 107.4v-374.3Z" style="fill:none;stroke:#000;stroke-width:36.59px" transform="matrix(.0471 0 0 .0471 383.178 -37.81)"/>
      <path d="m-7826.31 1644.85-121.09-129.3v527.7c37.73 14.18 77.9 22.8 120.92 24.94l.17-423.34Z" style="fill:none;stroke:#000;stroke-width:36.59px" transform="matrix(.0471 0 0 .0471 395.84 -37.81)"/>
      <path d="m-7826.29 1493.56-121.11 119.52v455.11c42.12-4.93 82.65-15.24 121.11-32.61v-542.02Z" style="fill:none;stroke:#000;stroke-width:36.59px" transform="matrix(.0471 0 0 .0471 408.501 -37.81)"/>
      <path d="m-7826.29 1232.49-121.11 119.52v607.89c49.15-29.85 88.87-68.07 121.11-112.95v-614.46Z" style="fill:none;stroke:#000;stroke-width:36.59px" transform="matrix(.0471 0 0 .0471 421.163 -37.81)"/>
      <path d="m-7825.88 1071.77 73.62-2.49-135.39-131.662-137.79 137.352 78.13-2.16.13 752.95-318.31 12.6 11.79 534.35c46.09 35.99 95.22 56.69 146.86 64.7l-15.13-473.99 297.89-6.81-1.8-884.84Z" style="fill:none;stroke:#000;stroke-width:36.59px" transform="rotate(46.157 -104.748 531.906) scale(.04711)"/>
      <path style="fill:none;stroke:#000;stroke-width:52.62px" d="M-8337.97 1305.97h411.442v2.232h-411.442z" transform="matrix(.02524 -.02525 -.02087 -.02087 238.647 -152.613)"/>
      <path style="fill:none;stroke:#000;stroke-width:68.28px" d="M-8337.97 1305.97h411.442v2.232h-411.442z" transform="matrix(.02524 -.02525 -.00001 -.00001 233.416 -188.795)"/>
      <path style="fill:none;stroke:#000;stroke-width:92.8px" d="M-8337.97 1305.97h411.442v2.232h-411.442z" transform="matrix(.01857 -.01857 -.00001 -.00001 181.696 -129.857)"/>
    </g>
  </g>
</svg>
