<svg viewBox="0 0 65 65" xmlns="http://www.w3.org/2000/svg" xml:space="preserve" style="fill-rule:evenodd;clip-rule:evenodd;stroke-linecap:round;stroke-linejoin:round;stroke-miterlimit:1.15854">
  <path style="fill:none" d="M0 0h64v64H0z" transform="translate(.496 .046)"/>
  <path d="M2147.7 719.304c0-114.84-93.24-208.075-208.08-208.075h-843.39c-114.836 0-208.071 93.235-208.071 208.075v416.146c0 114.85 93.235 208.08 208.071 208.08h843.39c114.84 0 208.08-93.23 208.08-208.08V719.304Z" style="fill:#36cfff" transform="matrix(-.03994 0 0 .03994 99.694 -9.238)"/>
  <path d="M2147.7 719.304c0-114.84-89.59-208.075-199.93-208.075h-859.68c-110.346 0-199.931 93.235-199.931 208.075v416.146c0 114.85 89.585 208.08 199.931 208.08h859.68c110.34 0 199.93-93.23 199.93-208.08V719.304Z" style="fill:#ff9e14" transform="matrix(-.03994 0 0 .03838 95.63 -4.638)"/>
  <path d="M2147.7 719.304c0-114.84-87.49-208.075-195.25-208.075h-869.04c-107.762 0-195.251 93.235-195.251 208.075v416.146c0 114.85 87.489 208.08 195.251 208.08h869.04c107.76 0 195.25-93.23 195.25-208.08V719.304Z" style="fill:#ff61a5" transform="matrix(-.04037 0 0 .03788 94.243 -2.316)"/>
  <path d="M2147.7 719.304c0-114.84-93.24-208.075-208.08-208.075h-843.39c-114.836 0-208.071 93.235-208.071 208.075v416.146c0 114.85 93.235 208.08 208.071 208.08h843.39c114.84 0 208.08-93.23 208.08-208.08V719.304Z" style="fill:none;stroke:#000;stroke-width:36.59px" transform="matrix(-.03994 0 0 .03994 97.932 -7.641)"/>
  <path d="M2147.7 719.304c0-114.84-93.24-208.075-208.08-208.075h-843.39c-114.836 0-208.071 93.235-208.071 208.075v416.146c0 114.85 93.235 208.08 208.071 208.08h843.39c114.84 0 208.08-93.23 208.08-208.08V719.304Z" style="fill:none;stroke:#000;stroke-width:36.59px" transform="matrix(-.03994 0 0 .03994 95.63 -5.437)"/>
  <path d="M2147.7 719.304c0-114.84-93.24-208.075-208.08-208.075h-843.39c-114.836 0-208.071 93.235-208.071 208.075v416.146c0 114.85 93.235 208.08 208.071 208.08h843.39c114.84 0 208.08-93.23 208.08-208.08V719.304Z" style="fill:none;stroke:#000;stroke-width:36.59px" transform="matrix(-.03994 0 0 .03994 93.33 -3.233)"/>
  <path d="M2147.7 705.826c0-107.473-87.13-194.597-194.6-194.597h-875.46a189.474 189.474 0 0 0-189.481 189.478v288.801L1174.7 1343.53h806.72a166.269 166.269 0 0 0 166.28-166.27V705.826Z" style="fill:#fff;stroke:#000;stroke-width:36.59px" transform="matrix(-.03994 0 0 .03994 91.028 -1.03)"/>
  <path d="M2355.3 942.674v272.636c0 19.27-9.26 37.75-25.76 51.38-16.5 13.63-38.88 21.29-62.21 21.29H2010l345.3-345.306Z" style="fill:#fff" transform="matrix(-.03468 0 0 -.04198 125.254 92.203)"/>
  <path d="M42.802 52.632a.78.78 0 0 0 1.38.496l11.973-14.495a.779.779 0 0 0-.6-1.275h-8.923a3.83 3.83 0 0 0-3.83 3.83v11.444Zm1.558-2.167v-9.278a2.271 2.271 0 0 1 2.272-2.27H53.9c-2.68 3.242-9.54 11.548-9.54 11.548Z"/>
  <path d="M2070.29 1665.59c0-40.66-34.23-73.67-76.4-73.67h-422.94c-42.17 0-76.4 33.01-76.4 73.67v147.32c0 40.66 34.23 73.66 76.4 73.66h422.94c42.17 0 76.4-33 76.4-73.66v-147.32Z" style="stroke:#000;stroke-width:6.19px" transform="matrix(.0541 0 0 .05611 -79.894 -60.867)"/>
  <text x="1561.99" y="1874.11" style="font-family:'ArialRoundedMTBold','Arial Rounded MT Bold',sans-serif;font-size:244.964px;fill:#fff" transform="matrix(.04886 0 0 .04886 -71.595 -50.62)">PDF</text>
</svg>
