<svg viewBox="0 0 65 65" xmlns="http://www.w3.org/2000/svg" xml:space="preserve" style="fill-rule:evenodd;clip-rule:evenodd;stroke-linecap:round;stroke-linejoin:round;stroke-miterlimit:1.15854">
  <path style="fill:none" d="M0 0h64v64H0z" transform="translate(.836 .686)"/>
  <circle cx="1972.15" cy="2904.63" r="349.084" style="fill:#ff3665" transform="matrix(.03868 0 0 .03868 -44.17 -98.154)"/>
  <circle cx="1972.15" cy="2904.63" r="349.084" style="fill:none;stroke:#000;stroke-width:38.82px" transform="matrix(.03868 0 0 .03868 -42.71 -97.01)"/>
  <path d="M1623.07 2904.63c0-143.61 86.91-267.08 210.95-320.64M1909.4 2561.18c20.36-3.7 41.33-5.63 62.75-5.63" style="fill:none;stroke:#000;stroke-width:50.78px" transform="matrix(.02957 0 0 .02957 -24.745 -70.548)"/>
  <path d="M2051.98 3253.72h-79.83V4281.3l39.92 159.68 39.91-159.68V3253.72Z" style="fill:none;stroke:#000;stroke-width:32.68px" transform="matrix(.05789 0 0 .0295 -82.904 -67.135)"/>
</svg>
