<svg width="100%" height="100%" viewBox="0 0 19499 6455" version="1.1" xmlns="http://www.w3.org/2000/svg" xmlns:xlink="http://www.w3.org/1999/xlink" xml:space="preserve" xmlns:serif="http://www.serif.com/" style="fill-rule:evenodd;clip-rule:evenodd;stroke-linecap:round;stroke-linejoin:round;stroke-miterlimit:1.15854;">
    <g transform="matrix(1,0,0,1,17456,-23272)">
        <g transform="matrix(1,0,0,1,-151.006,10774.4)">
            <g transform="matrix(3.07497,0,0,3.07497,21813.9,11514.8)">
                <g transform="matrix(0.969359,0,0,0.969359,-98.8113,43.9342)">
                    <circle cx="-7855.33" cy="1470.29" r="638.159" style="fill:rgb(255,175,24);"/>
                </g>
                <g transform="matrix(0.969359,0,0,0.969359,-150.977,-13.0137)">
                    <circle cx="-7855.33" cy="1470.29" r="638.159" style="fill:none;stroke:black;stroke-width:37.74px;"/>
                </g>
                <g transform="matrix(0.535747,-0.5359,-0.443068,-0.442942,-3299.6,-2459.64)">
                    <rect x="-8337.97" y="1305.97" width="411.442" height="2.232" style="fill:none;stroke:white;stroke-width:52.62px;"/>
                </g>
                <g transform="matrix(0.535747,-0.5359,-0.000291792,-0.000291709,-3409.65,-3228.82)">
                    <rect x="-8337.97" y="1305.97" width="411.442" height="2.232" style="fill:none;stroke:white;stroke-width:68.28px;"/>
                </g>
                <g transform="matrix(0.394172,-0.394284,-0.000291792,-0.000291709,-4507.56,-1977.69)">
                    <rect x="-8337.97" y="1305.97" width="411.442" height="2.232" style="fill:none;stroke:white;stroke-width:92.8px;"/>
                </g>
                <g transform="matrix(1,0,0,1,-230.571,-23.7639)">
                    <path d="M-7826.29,1596.07L-7947.4,1715.6L-7947.4,1862.97C-7947.4,1883.66 -7826.29,1991.06 -7826.29,1970.37L-7826.29,1596.07Z" style="fill:rgb(255,56,129);"/>
                </g>
                <g transform="matrix(1,0,0,1,-269.508,-43.324)">
                    <path d="M-7826.29,1596.07L-7947.4,1715.6L-7947.4,1862.97C-7947.4,1883.66 -7826.29,1991.06 -7826.29,1970.37L-7826.29,1596.07Z" style="fill:none;stroke:black;stroke-width:36.59px;"/>
                </g>
                <g transform="matrix(1,0,0,1,38.2051,-23.7639)">
                    <path d="M-7826.31,1644.85L-7947.4,1515.55L-7947.4,2043.25C-7909.67,2057.43 -7869.5,2066.05 -7826.48,2068.19L-7826.31,1644.85Z" style="fill:rgb(255,56,129);"/>
                </g>
                <g transform="matrix(1,0,0,1,-0.732275,-43.324)">
                    <path d="M-7826.31,1644.85L-7947.4,1515.55L-7947.4,2043.25C-7909.67,2057.43 -7869.5,2066.05 -7826.48,2068.19L-7826.31,1644.85Z" style="fill:none;stroke:black;stroke-width:36.59px;"/>
                </g>
                <g transform="matrix(1,0,0,1,306.981,-23.7639)">
                    <path d="M-7826.29,1493.56L-7947.4,1613.08L-7947.4,2068.19C-7905.28,2063.26 -7864.75,2052.95 -7826.29,2035.58L-7826.29,1493.56Z" style="fill:rgb(255,56,129);"/>
                </g>
                <g transform="matrix(1,0,0,1,268.044,-43.324)">
                    <path d="M-7826.29,1493.56L-7947.4,1613.08L-7947.4,2068.19C-7905.28,2063.26 -7864.75,2052.95 -7826.29,2035.58L-7826.29,1493.56Z" style="fill:none;stroke:black;stroke-width:36.59px;"/>
                </g>
                <g transform="matrix(1,0,0,1,575.757,-23.7639)">
                    <path d="M-7826.29,1232.49L-7947.4,1352.01L-7947.4,1959.9C-7898.25,1930.05 -7858.53,1891.83 -7826.29,1846.95L-7826.29,1232.49Z" style="fill:rgb(255,56,129);"/>
                </g>
                <g transform="matrix(1,0,0,1,536.82,-43.324)">
                    <path d="M-7826.29,1232.49L-7947.4,1352.01L-7947.4,1959.9C-7898.25,1930.05 -7858.53,1891.83 -7826.29,1846.95L-7826.29,1232.49Z" style="fill:none;stroke:black;stroke-width:36.59px;"/>
                </g>
                <g transform="matrix(0.692711,0.721216,-0.721216,0.692711,-904.812,5852.38)">
                    <path d="M-7825.88,1071.77L-7752.26,1069.28L-7887.65,937.618L-8025.44,1074.97L-7947.31,1072.81L-7947.18,1825.76L-8265.49,1838.36L-8253.7,2372.71C-8207.61,2408.7 -8158.48,2429.4 -8106.84,2437.41L-8121.97,1963.42L-7824.08,1956.61L-7825.88,1071.77Z" style="fill:rgb(0,183,255);"/>
                </g>
                <g transform="matrix(0.692711,0.721216,-0.721216,0.692711,-943.749,5832.82)">
                    <path d="M-7825.88,1071.77L-7752.26,1069.28L-7887.65,937.618L-8025.44,1074.97L-7947.31,1072.81L-7947.18,1825.76L-8265.49,1838.36L-8253.7,2372.71C-8207.61,2408.7 -8158.48,2429.4 -8106.84,2437.41L-8121.97,1963.42L-7824.08,1956.61L-7825.88,1071.77Z" style="fill:none;stroke:black;stroke-width:36.59px;"/>
                </g>
                <g transform="matrix(0.535747,-0.5359,-0.443068,-0.442942,-3338.54,-2479.2)">
                    <rect x="-8337.97" y="1305.97" width="411.442" height="2.232" style="fill:none;stroke:black;stroke-width:52.62px;"/>
                </g>
                <g transform="matrix(0.535747,-0.5359,-0.000291792,-0.000291709,-3448.59,-3248.38)">
                    <rect x="-8337.97" y="1305.97" width="411.442" height="2.232" style="fill:none;stroke:black;stroke-width:68.28px;"/>
                </g>
                <g transform="matrix(0.394172,-0.394284,-0.000291792,-0.000291709,-4546.5,-1997.25)">
                    <rect x="-8337.97" y="1305.97" width="411.442" height="2.232" style="fill:none;stroke:black;stroke-width:92.8px;"/>
                </g>
            </g>
            <g transform="matrix(1,0,0,1,-1286.75,5582.06)">
                <text x="-13647.4px" y="10340.2px" style="font-family:'ArialRoundedMTBold', 'Arial Rounded MT Bold', sans-serif;font-size:2389px;">MIXT<tspan x="-8124.04px -6405.78px " y="10340.2px 10340.2px ">AP</tspan>E</text>
                <path d="M-12954.1,10100.2C-12954.1,10100.4 -12954,10100.6 -12954,10100.8C-12944.6,10136.8 -12935.4,10171.4 -12926.4,10204.7C-12915.7,10244 -12901.1,10279.8 -12882.6,10312.2C-12861.1,10349.8 -12831.2,10380.8 -12792.6,10405C-12753.9,10429.1 -12707,10442.3 -12651.2,10442.3C-12576.5,10442.3 -12518.8,10420.7 -12476.5,10382.8C-12436,10346.5 -12408.9,10305.8 -12393.8,10261.7C-12382.1,10227.4 -12366.9,10173.6 -12348.4,10100.3C-12348.4,10100.2 -12348.4,10100.2 -12348.4,10100.2L-12217.9,9581.78C-12217.9,9877.35 -12217.9,10173.4 -12217.9,10173.4C-12217.9,10261 -12194.4,10325.5 -12154.8,10369.3C-12111,10417.6 -12055.4,10442.3 -11987.5,10442.3C-11915.5,10442.3 -11858.7,10416.9 -11815.9,10368.9C-11776.8,10325.2 -11753.6,10260.8 -11753.6,10173.4C-11753.6,10173.4 -11753.6,8820.22 -11753.6,8820.22C-11753.6,8714.06 -11789,8645.6 -11844.2,8608.55C-11893.3,8575.69 -11959,8557.13 -12042.3,8557.13C-12042.3,8557.13 -12149.6,8557.13 -12149.6,8557.13C-12226.7,8557.13 -12282.5,8565.91 -12317.3,8579.84C-12363.9,8598.48 -12398.8,8631.55 -12421.2,8680C-12436.3,8712.81 -12454,8766.11 -12473.3,8840.13C-12473.3,8840.13 -12577.8,9233.99 -12651.2,9510.88C-12651.2,9510.88 -12826.4,8850.42 -12829.2,8840.13C-12848.5,8766.11 -12866.2,8712.81 -12881.3,8680C-12903.7,8631.55 -12938.6,8598.48 -12985.2,8579.84C-13020,8565.91 -13075.7,8557.13 -13152.8,8557.13C-13152.8,8557.13 -13260.2,8557.13 -13260.2,8557.13C-13343.5,8557.13 -13409.2,8575.69 -13458.2,8608.55C-13513.5,8645.6 -13548.9,8714.06 -13548.9,8820.22L-13548.9,10173.4C-13548.9,10262.1 -13525.1,10326.9 -13485.4,10370.2C-13441.9,10417.7 -13386.1,10442.3 -13317.3,10442.3C-13246.3,10442.3 -13189.8,10417 -13146.8,10368.9C-13107.8,10325.2 -13084.6,10260.8 -13084.6,10173.4C-13084.6,10173.4 -13084.6,9877.35 -13084.6,9581.78C-13084.6,9581.78 -12954.1,10100.2 -12954.1,10100.2ZM-12883.4,10082.4L-13157.5,8992.86L-13157.5,10173.4C-13157.5,10238.7 -13172.1,10287.7 -13201.3,10320.3C-13230.4,10353 -13269.1,10369.3 -13317.3,10369.3C-13364,10369.3 -13402.1,10353.2 -13431.6,10320.9C-13461.2,10288.7 -13476,10239.5 -13476,10173.4L-13476,8820.22C-13476,8745.56 -13456.5,8695.21 -13417.6,8669.16C-13378.8,8643.1 -13326.3,8630.08 -13260.2,8630.08L-13152.8,8630.08C-13088.3,8630.08 -13041.4,8635.91 -13012.3,8647.58C-12983.1,8659.24 -12961.5,8680.24 -12947.5,8710.57C-12933.5,8740.9 -12917.6,8790.28 -12899.7,8858.71L-12651.2,9795.42L-12402.8,8858.71C-12384.9,8790.28 -12369,8740.9 -12355,8710.57C-12341,8680.24 -12319.4,8659.24 -12290.2,8647.58C-12261,8635.91 -12214.2,8630.08 -12149.6,8630.08L-12042.3,8630.08C-11976.2,8630.08 -11923.7,8643.1 -11884.9,8669.16C-11846,8695.21 -11826.5,8745.56 -11826.5,8820.22L-11826.5,10173.4C-11826.5,10238.7 -11841.1,10287.7 -11870.3,10320.3C-11899.4,10353 -11938.5,10369.3 -11987.5,10369.3C-12033.4,10369.3 -12071.1,10353 -12100.7,10320.3C-12130.2,10287.7 -12145,10238.7 -12145,10173.4L-12145,8992.86L-12419.1,10082.4C-12437,10153.1 -12451.6,10205.1 -12462.9,10238.1C-12474.1,10271.2 -12494.9,10301.3 -12525.3,10328.5C-12555.6,10355.7 -12597.6,10369.3 -12651.2,10369.3C-12691.7,10369.3 -12725.9,10360.6 -12753.9,10343.1C-12781.9,10325.6 -12803.7,10303.2 -12819.2,10276C-12834.8,10248.8 -12847,10218.7 -12856,10185.6C-12864.9,10152.6 -12874,10118.1 -12883.4,10082.4Z" style="fill:rgb(26,0,0);"/>
                <path d="M-11529.7,10158.2C-11529.7,10250.5 -11504.8,10318.8 -11462.2,10365.4C-11415.8,10416.4 -11356.9,10442.3 -11285.3,10442.3C-11210.9,10442.3 -11151.1,10416.2 -11105.1,10366.3C-11062.5,10320.1 -11037.3,10251.6 -11037.3,10158.2L-11037.3,8810.89C-11037.3,8717.28 -11062.7,8648.84 -11105.4,8603.07C-11151.3,8553.75 -11211,8527.96 -11285.3,8527.96C-11358,8527.96 -11417,8553.92 -11462.8,8604.28C-11504.9,8650.45 -11529.7,8718.54 -11529.7,8810.89L-11529.7,10158.2ZM-11456.7,10158.2L-11456.7,8810.89C-11456.7,8740.9 -11440.8,8688.4 -11408.9,8653.41C-11377,8618.41 -11335.8,8600.92 -11285.3,8600.92C-11233.2,8600.92 -11191,8618.22 -11158.7,8652.83C-11126.4,8687.43 -11110.3,8740.12 -11110.3,8810.89L-11110.3,10158.2C-11110.3,10229 -11126.4,10281.8 -11158.7,10316.8C-11191,10351.8 -11233.2,10369.3 -11285.3,10369.3C-11335,10369.3 -11376.1,10351.6 -11408.3,10316.3C-11440.6,10280.9 -11456.7,10228.2 -11456.7,10158.2Z" style="fill:rgb(26,0,0);"/>
                <path d="M-10846.2,9966.5C-10846.2,9966.54 -10846.2,9966.57 -10846.3,9966.6C-10913.7,10065.5 -10944.1,10150.5 -10944.1,10218.9C-10944.1,10291.7 -10920.5,10346.1 -10879.4,10384.3C-10838.6,10422.2 -10787.5,10442.3 -10725.3,10442.3C-10687.2,10442.3 -10654.1,10435.7 -10625.8,10423.7C-10596.6,10411.3 -10571.4,10394.4 -10550.1,10373.1C-10531.9,10354.8 -10516.3,10336 -10503.3,10316.8C-10492.7,10301 -10474.7,10273.4 -10449.5,10234C-10442.8,10223.8 -10283,9980.08 -10192,9841.28C-10192,9841.28 -9951.7,10219.5 -9951.7,10219.5C-9951.54,10219.7 -9951.37,10220 -9951.2,10220.3C-9912.57,10279.4 -9886.15,10319.2 -9871.95,10339.7C-9852.23,10368.2 -9826.62,10392.2 -9794.84,10411.4C-9761.95,10431.2 -9721.97,10442.3 -9674.33,10442.3C-9630.93,10442.3 -9592.09,10432.4 -9557.59,10413.5C-9521.41,10393.6 -9493.59,10366.6 -9473.74,10332.7C-9453.98,10299 -9443.9,10261.9 -9443.9,10221.2C-9443.9,10182.9 -9453.03,10142.2 -9472.68,10099.3C-9488.63,10064.4 -9514.01,10020.5 -9549.23,9967.62C-9549.22,9967.63 -9885.58,9449.56 -9885.58,9449.56C-9805.85,9330.38 -9575.2,8985.6 -9575.2,8985.6C-9504.37,8879.81 -9473.06,8794.38 -9473.06,8732.73C-9473.06,8676.61 -9494.04,8627.81 -9537.35,8586.94C-9578.04,8548.54 -9629.97,8527.96 -9694.16,8527.96C-9729.59,8527.96 -9760.63,8534.56 -9787.49,8546.56C-9814.67,8558.7 -9839.43,8576.68 -9861.4,8600.96C-9878.49,8619.85 -9896.37,8643.6 -9914.81,8672.38C-9930.67,8697.14 -9949.81,8726.91 -9972.23,8761.7C-9972.23,8761.7 -10183.2,9081.34 -10183.2,9081.34C-10183.2,9081.34 -10379.8,8763.24 -10379.8,8763.24C-10430.9,8680.34 -10471.4,8623.95 -10500.3,8593.38C-10540,8551.39 -10594.5,8527.96 -10665.9,8527.96C-10727.1,8527.96 -10778.7,8547.61 -10821.2,8585.59C-10868,8627.42 -10889.3,8675.61 -10889.3,8728.06C-10889.3,8769.27 -10880,8812.35 -10860.4,8857.08C-10844.1,8894.33 -10819.7,8938.98 -10787.1,8990.88C-10786.9,8991.15 -10786.7,8991.43 -10786.6,8991.7L-10491,9447.84C-10578.7,9575.87 -10846.2,9966.5 -10846.2,9966.5ZM-10786,10007.7L-10403.4,9448.96L-10725.3,8952.03C-10755.7,8903.82 -10778.4,8862.41 -10793.6,8827.8C-10808.8,8793.19 -10816.3,8759.95 -10816.3,8728.06C-10816.3,8695.4 -10801.8,8666.05 -10772.6,8639.99C-10743.4,8613.94 -10707.8,8600.92 -10665.9,8600.92C-10617.6,8600.92 -10580.1,8615.11 -10553.3,8643.49C-10526.5,8671.88 -10489.3,8724.57 -10441.9,8801.55L-10185.3,9216.83L-9911.13,8801.55C-9888.57,8766.56 -9869.33,8736.62 -9853.39,8711.73C-9837.44,8686.85 -9822.08,8666.24 -9807.31,8649.91C-9792.53,8633.58 -9776.01,8621.33 -9757.73,8613.16C-9739.46,8605 -9718.26,8600.92 -9694.16,8600.92C-9650.61,8600.92 -9615.03,8613.94 -9587.42,8639.99C-9559.82,8666.05 -9546.01,8696.96 -9546.01,8732.73C-9546.01,8784.83 -9575.95,8855.6 -9635.83,8945.03L-9972.95,9448.96L-9610.17,10007.7C-9577.51,10056.7 -9553.79,10097.3 -9539.01,10129.6C-9524.24,10161.9 -9516.85,10192.4 -9516.85,10221.2C-9516.85,10248.4 -9523.46,10273.3 -9536.68,10295.8C-9549.9,10318.4 -9568.56,10336.3 -9592.67,10349.5C-9616.78,10362.7 -9644,10369.3 -9674.33,10369.3C-9706.99,10369.3 -9734.6,10362.5 -9757.15,10348.9C-9779.7,10335.3 -9797.98,10318.4 -9811.97,10298.2C-9825.97,10278 -9852.02,10238.7 -9890.13,10180.4L-10191.1,9706.76L-10510.7,10194.4C-10535.6,10233.2 -10553.3,10260.5 -10563.8,10276C-10574.3,10291.6 -10586.9,10306.7 -10601.7,10321.5C-10616.5,10336.3 -10634,10347.9 -10654.2,10356.5C-10674.4,10365.1 -10698.1,10369.3 -10725.3,10369.3C-10767.3,10369.3 -10802.1,10356.5 -10829.7,10330.8C-10857.4,10305.2 -10871.2,10267.8 -10871.2,10218.9C-10871.2,10161.3 -10842.8,10090.9 -10786,10007.7Z" style="fill:rgb(26,0,0);"/>
                <path d="M-8169.54,8988.82C-8088.49,8988.82 -8028.84,8967.24 -7988.31,8931.52C-7942.97,8891.54 -7919.28,8839.18 -7919.28,8773.56C-7919.28,8708.34 -7942.51,8656.01 -7986.97,8615.69C-8027.1,8579.31 -8087.14,8557.13 -8169.54,8557.13C-8169.54,8557.13 -9270.72,8557.13 -9270.72,8557.13C-9348.64,8557.13 -9407.16,8577.96 -9448.26,8613.18C-9494.18,8652.55 -9518.64,8705.57 -9518.64,8773.56C-9518.64,8838.94 -9495.48,8891.05 -9451.49,8930.87C-9411.76,8966.84 -9352.33,8988.82 -9270.72,8988.82C-9270.72,8988.82 -8965.72,8988.82 -8965.72,8988.82C-8965.72,9254.97 -8965.72,10158.2 -8965.72,10158.2C-8965.72,10251.6 -8940.57,10320.1 -8897.99,10366.3C-8851.82,10416.4 -8792.39,10442.3 -8718.96,10442.3C-8646.33,10442.3 -8587.47,10416.6 -8541.66,10366.9C-8499.62,10321.2 -8474.53,10252.5 -8474.53,10158.2C-8474.53,10158.2 -8474.53,9254.97 -8474.53,8988.82C-8474.53,8988.82 -8169.54,8988.82 -8169.54,8988.82ZM-8169.54,8915.87L-8547.48,8915.87L-8547.48,10158.2C-8547.48,10229.7 -8563.43,10282.8 -8595.31,10317.4C-8627.19,10352 -8668.41,10369.3 -8718.96,10369.3C-8770.29,10369.3 -8812.09,10351.8 -8844.36,10316.8C-8876.63,10281.8 -8892.77,10229 -8892.77,10158.2L-8892.77,8915.87L-9270.72,8915.87C-9329.82,8915.87 -9373.76,8902.84 -9402.53,8876.79C-9431.31,8850.74 -9445.69,8816.33 -9445.69,8773.56C-9445.69,8729.23 -9430.72,8694.24 -9400.78,8668.57C-9370.84,8642.91 -9327.49,8630.08 -9270.72,8630.08L-8169.54,8630.08C-8109.66,8630.08 -8065.13,8643.3 -8035.97,8669.74C-8006.81,8696.18 -7992.23,8730.79 -7992.23,8773.56C-7992.23,8816.33 -8007,8850.74 -8036.56,8876.79C-8066.11,8902.84 -8110.43,8915.87 -8169.54,8915.87Z" style="fill:rgb(26,0,0);"/>
                <path d="M-6911.4,10172.5C-6911.17,10173.1 -6910.93,10173.7 -6910.68,10174.3C-6899.61,10201.2 -6886.37,10232.2 -6870.96,10267.4C-6852.59,10309.3 -6834.81,10340.1 -6818.79,10360.3C-6798.92,10385.5 -6774.42,10405.4 -6745.2,10420C-6716.64,10434.3 -6682.56,10442.3 -6642.58,10442.3C-6575.8,10442.3 -6518.74,10418.7 -6471.43,10371.3C-6422.98,10322.9 -6400.49,10268.8 -6400.49,10210.7C-6400.49,10166.9 -6418.32,10096.2 -6458.45,9999.83C-6467.15,9978.35 -6892.09,8928.76 -6904.79,8897.38C-6925.96,8841.73 -6943.42,8797.23 -6957.16,8763.86C-6972.77,8725.95 -6991.96,8690.51 -7014.7,8657.5C-7040.69,8619.79 -7074.69,8588.8 -7116.98,8564.85C-7158.94,8541.09 -7210.98,8527.96 -7273.66,8527.96C-7335.47,8527.96 -7387.12,8541.04 -7429.17,8564.85C-7471.66,8588.91 -7505.85,8620.51 -7531.96,8659.42C-7554.32,8692.73 -7575.59,8734.48 -7595.31,8784.89C-7612.8,8829.58 -7627.76,8867.86 -7640.2,8899.74C-7645.06,8912.06 -8069.71,9990.12 -8077.49,10009.9C-8096.27,10056.4 -8109.68,10092.8 -8117.85,10118.9C-8127.96,10151.3 -8132.84,10182.7 -8132.84,10213C-8132.84,10272.9 -8109.57,10327.1 -8060.07,10374.3C-8012.12,10420 -7956.68,10442.3 -7894.24,10442.3C-7815.02,10442.3 -7759.96,10414.5 -7725.15,10368.3C-7700.13,10335.1 -7668.78,10271.6 -7633.41,10176.7L-7569.43,10004.8C-7569.43,10004.8 -6975.18,10004.8 -6975.18,10004.8C-6975.18,10004.8 -6911.4,10172.5 -6911.4,10172.5ZM-6843.22,10146.5L-6924.88,9931.9L-7620.11,9931.9L-7701.77,10151.2C-7733.65,10236.7 -7760.87,10294.5 -7783.42,10324.4C-7805.98,10354.4 -7842.91,10369.3 -7894.24,10369.3C-7937.79,10369.3 -7976.28,10353.4 -8009.73,10321.5C-8043.16,10289.6 -8059.89,10253.5 -8059.89,10213C-8059.89,10189.7 -8056,10165.6 -8048.22,10140.7C-8040.44,10115.8 -8027.61,10081.2 -8009.73,10036.9L-7572.29,8926.37C-7559.84,8894.49 -7544.87,8856.18 -7527.38,8811.47C-7509.88,8766.75 -7491.21,8729.62 -7471.38,8700.07C-7451.55,8670.52 -7425.5,8646.6 -7393.23,8628.33C-7360.95,8610.05 -7321.1,8600.92 -7273.66,8600.92C-7225.45,8600.92 -7185.2,8610.05 -7152.93,8628.33C-7120.65,8646.6 -7094.6,8670.13 -7074.77,8698.9C-7054.94,8727.67 -7038.22,8758.59 -7024.61,8791.64C-7011,8824.69 -6993.7,8868.82 -6972.7,8924.04L-6525.93,10027.5C-6490.94,10111.5 -6473.44,10172.6 -6473.44,10210.7C-6473.44,10250.4 -6489.97,10286.7 -6523.02,10319.8C-6556.07,10352.8 -6595.92,10369.3 -6642.58,10369.3C-6669.8,10369.3 -6693.13,10364.5 -6712.57,10354.8C-6732.02,10345 -6748.35,10331.8 -6761.57,10315.1C-6774.79,10298.4 -6788.98,10272.7 -6804.14,10238.1C-6819.31,10203.5 -6832.33,10173 -6843.22,10146.5ZM-7529.13,9671.77L-7018.2,9671.77L-7275.99,8966.03L-7529.13,9671.77ZM-7425.46,9598.82L-7275.37,9180.36C-7275.37,9180.36 -7177.22,9449.05 -7122.51,9598.82L-7425.46,9598.82Z" style="fill:rgb(26,0,0);"/>
                <path d="M-5555.4,9747.05C-5321.91,9747.05 -5147.17,9694.09 -5029.15,9595.31C-4906.35,9492.53 -4842.04,9342.67 -4842.04,9143.34C-4842.04,9051.52 -4857.3,8968.95 -4887.03,8895.5C-4917.83,8819.4 -4963.02,8755.16 -5022.36,8702.61C-5081.37,8650.35 -5151.29,8612.73 -5232.36,8590.18C-5307.78,8568.67 -5415.42,8557.13 -5555.4,8557.13C-5555.4,8557.13 -5999.84,8557.13 -5999.84,8557.13C-6099.43,8557.13 -6170.69,8583.06 -6216.43,8625.74C-6263.24,8669.43 -6292.09,8740.43 -6292.09,8842.38C-6292.09,8842.38 -6292.09,10160.5 -6292.09,10160.5C-6292.09,10250.9 -6267.61,10318.4 -6225.51,10365.1C-6179.79,10415.8 -6120.04,10442.3 -6045.33,10442.3C-5973.82,10442.3 -5914.74,10416.3 -5867.81,10364.9C-5824.72,10317.7 -5799.74,10249.5 -5799.74,10158.2L-5799.74,9747.05C-5799.74,9747.05 -5555.4,9747.05 -5555.4,9747.05ZM-5555.4,9674.1L-5872.69,9674.1L-5872.69,10158.2C-5872.69,10227.4 -5889.02,10279.9 -5921.68,10315.7C-5954.35,10351.4 -5995.56,10369.3 -6045.33,10369.3C-6097.44,10369.3 -6139.43,10351.6 -6171.32,10316.3C-6203.2,10280.9 -6219.14,10229 -6219.14,10160.5L-6219.14,8842.38C-6219.14,8766.17 -6201.64,8711.73 -6166.65,8679.07C-6131.65,8646.41 -6076.05,8630.08 -5999.84,8630.08L-5555.4,8630.08C-5423.98,8630.08 -5322.88,8640.19 -5252.11,8660.41C-5182.12,8679.85 -5121.66,8712.12 -5070.72,8757.23C-5019.78,8802.33 -4981.09,8857.55 -4954.65,8922.87C-4928.21,8988.19 -4914.99,9061.68 -4914.99,9143.34C-4914.99,9317.54 -4968.65,9449.55 -5075.97,9539.37C-5183.29,9629.19 -5343.1,9674.1 -5555.4,9674.1ZM-5639.39,8890.21L-5872.69,8890.21L-5872.69,9412.8L-5639.39,9412.8C-5557.73,9412.8 -5489.49,9404.25 -5434.67,9387.14C-5379.84,9370.03 -5338.04,9342.03 -5309.27,9303.15C-5280.49,9264.27 -5266.11,9213.33 -5266.11,9150.34C-5266.11,9074.91 -5288.27,9013.47 -5332.6,8966.03C-5382.37,8915.48 -5484.63,8890.21 -5639.39,8890.21ZM-5639.39,8963.16C-5569.05,8963.16 -5510.61,8968.5 -5464.13,8979.98C-5429.32,8988.59 -5402.4,8999.52 -5385.22,9016.58C-5353.47,9050.98 -5339.06,9095.91 -5339.06,9150.34C-5339.06,9195.23 -5347.4,9232.05 -5367.91,9259.76C-5388.05,9286.98 -5418.02,9305.52 -5456.4,9317.5C-5505.39,9332.79 -5566.43,9339.85 -5639.39,9339.85C-5639.39,9339.85 -5799.74,9339.85 -5799.74,9339.85C-5799.74,9339.85 -5799.74,9090.48 -5799.74,8963.16C-5799.74,8963.16 -5639.39,8963.16 -5639.39,8963.16Z" style="fill:rgb(26,0,0);"/>
                <path d="M-3498.86,8970.16C-3421.01,8970.16 -3364.43,8948.87 -3326.6,8914.34C-3284.78,8876.16 -3262.59,8826.09 -3262.59,8763.06C-3262.59,8701.01 -3284.63,8651.27 -3326.6,8612.95C-3364.43,8578.41 -3421.01,8557.13 -3498.86,8557.13C-3498.86,8557.13 -4413.39,8557.13 -4413.39,8557.13C-4474.77,8557.13 -4524.98,8567.28 -4564.44,8585.3C-4612.14,8607.09 -4647.2,8641.8 -4669.58,8689.5C-4688.14,8729.06 -4698.65,8779.87 -4698.65,8842.38L-4698.65,10127.9C-4698.65,10226.9 -4671.83,10297 -4628.01,10341.3C-4584.08,10385.7 -4513.65,10413.1 -4413.39,10413.1L-3472.03,10413.1C-3395.29,10413.1 -3338.62,10391.7 -3299.7,10356.1C-3256.91,10316.9 -3234.6,10266.4 -3234.6,10203.7C-3234.6,10139.1 -3257.21,10087.9 -3299.7,10049C-3338.62,10013.4 -3395.29,9991.93 -3472.03,9991.93L-4206.3,9991.93C-4206.3,9900.08 -4206.3,9743.24 -4206.3,9651.4C-4206.3,9651.4 -3560.68,9651.4 -3560.68,9651.4C-3483.69,9651.4 -3428.14,9629.62 -3391.33,9594.47C-3351.3,9556.27 -3330.25,9507.27 -3330.25,9446.63C-3330.25,9385.2 -3352.01,9336.25 -3393.17,9298.78C-3430.29,9264.98 -3485.32,9244.2 -3560.68,9244.2C-3560.68,9244.2 -4206.3,9244.2 -4206.3,9244.2C-4206.3,9244.2 -4206.3,8970.16 -4206.3,8970.16C-4012.38,8970.16 -3498.86,8970.16 -3498.86,8970.16L-3498.86,8970.16ZM-3498.86,8897.21L-4279.25,8897.21L-4279.25,9317.15L-3560.68,9317.15C-3507.8,9317.15 -3468.33,9329.01 -3442.28,9352.73C-3416.23,9376.45 -3403.2,9407.75 -3403.2,9446.63C-3403.2,9485.51 -3416.03,9517.2 -3441.7,9541.7C-3467.36,9566.2 -3507.02,9578.44 -3560.68,9578.44L-4279.25,9578.44L-4279.25,10064.9L-3472.03,10064.9C-3417.59,10064.9 -3376.57,10077.5 -3348.96,10102.8C-3321.35,10128.1 -3307.55,10161.7 -3307.55,10203.7C-3307.55,10244.1 -3321.35,10277 -3348.96,10302.3C-3376.57,10327.5 -3417.59,10340.2 -3472.03,10340.2L-4413.39,10340.2C-4488.83,10340.2 -4543.07,10323.5 -4576.12,10290C-4609.17,10256.6 -4625.7,10202.5 -4625.7,10127.9L-4625.7,8842.38C-4625.7,8792.61 -4618.31,8751.98 -4603.53,8720.48C-4588.76,8688.99 -4565.62,8666.05 -4534.13,8651.66C-4502.63,8637.27 -4462.39,8630.08 -4413.39,8630.08L-3498.86,8630.08C-3443.64,8630.08 -3402.62,8642.33 -3375.79,8666.82C-3348.96,8691.32 -3335.54,8723.4 -3335.54,8763.06C-3335.54,8803.5 -3348.96,8835.97 -3375.79,8860.46C-3402.62,8884.96 -3443.64,8897.21 -3498.86,8897.21Z" style="fill:rgb(26,0,0);"/>
                <text x="-13647.4px" y="12326.6px" style="font-family:'ArialRoundedMTBold', 'Arial Rounded MT Bold', sans-serif;font-size:2132px;">S<tspan x="-12309px -10970.5px -9632px -8293.52px -7709.78px -6104.8px -4568.53px " y="12326.6px 12326.6px 12326.6px 12326.6px 12326.6px 12326.6px 12326.6px ">ESSIONS</tspan></text>
                <path d="M-12248.2,11868.5C-12248.2,11778.2 -12265.3,11702.1 -12297.5,11639.9C-12330.3,11576.3 -12376,11523.7 -12434.6,11482.1C-12488.6,11443.9 -12553.9,11411.1 -12630.8,11384.3C-12702.6,11359.3 -12782.8,11336.4 -12871.3,11315.7C-12938.2,11298.8 -12986.2,11285.9 -13015.3,11277.2C-13040.4,11269.5 -13065.2,11259 -13089.8,11245.5C-13108.9,11235.1 -13124.3,11223 -13135.2,11208.5C-13142.6,11198.6 -13145.6,11186.7 -13145.6,11173.1C-13145.6,11146.3 -13129.3,11125.1 -13102.7,11106C-13064.6,11078.7 -13014.1,11067 -12952,11067C-12887.9,11067 -12840.2,11074.6 -12811.3,11098.6C-12779.6,11124.9 -12753.1,11162 -12730.4,11209C-12730,11209.9 -12729.5,11210.8 -12729.1,11211.7C-12702.9,11260.6 -12677.8,11295.3 -12655.4,11316.8C-12625.3,11345.8 -12582.3,11363.7 -12524.2,11363.7C-12463.5,11363.7 -12412.8,11340.8 -12372.1,11294.8C-12333.5,11251 -12314.9,11201.7 -12314.9,11147.1C-12314.9,11096.4 -12327.4,11044.3 -12353.6,10991C-12378.3,10940.7 -12417,10892.2 -12470.6,10846.5C-12522.1,10802.5 -12586.6,10766.8 -12664.7,10740.2C-12739.6,10714.7 -12828.4,10701.5 -12931.2,10701.5C-13059,10701.5 -13170.1,10721.2 -13264.6,10759.4C-13365.7,10800.2 -13442.4,10859.4 -13495.8,10935.5C-13550.2,11013 -13577.8,11101.5 -13577.8,11201.2C-13577.8,11306.7 -13550.5,11394.5 -13498.6,11465.5C-13448.3,11534.4 -13380.4,11589.2 -13294.6,11629.1C-13216.9,11665.3 -13120.4,11697.1 -13005.1,11724.1C-13005,11724.1 -13004.9,11724.1 -13004.7,11724.2C-12925.9,11742.2 -12862.9,11759.2 -12815.8,11775.2C-12778.7,11787.8 -12748.1,11805.6 -12724.7,11829.5C-12706.7,11847.9 -12699.2,11872.3 -12699.2,11901.8C-12699.2,11942.7 -12719.1,11975.9 -12755.7,12003.2C-12801.6,12037.4 -12861.9,12052.7 -12935.4,12052.7C-12988.1,12052.7 -13030.9,12045.8 -13063.2,12029.1C-13092.6,12013.9 -13115.8,11995.1 -13132,11971.7C-13151.8,11943.1 -13170,11907.3 -13187.1,11864.6C-13207.9,11811.5 -13234,11772.2 -13263.3,11745.2C-13299.4,11711.9 -13343.3,11694.6 -13395.5,11694.6C-13457.1,11694.6 -13507.4,11715.9 -13547.2,11756.7C-13587,11797.6 -13606.9,11846.6 -13606.9,11903.9C-13606.9,11981 -13582.3,12060.7 -13530.5,12142.4C-13480.8,12220.6 -13416.3,12283.2 -13336.8,12330.1C-13336.7,12330.1 -13336.5,12330.2 -13336.4,12330.3C-13228.8,12392.9 -13092.6,12425.6 -12927.1,12425.6C-12789.7,12425.6 -12671.2,12402.1 -12571,12356.6C-12465.5,12308.6 -12386,12241.6 -12331.2,12156.9C-12276.1,12071.6 -12248.2,11975.6 -12248.2,11868.5ZM-12321.2,11868.5C-12321.2,11960.8 -12345,12043.8 -12392.5,12117.3C-12440,12190.9 -12509.6,12248.5 -12601.2,12290.1C-12692.8,12331.8 -12801.4,12352.6 -12927.1,12352.6C-13077.7,12352.6 -13201.9,12324.1 -13299.7,12267.2C-13369.1,12226.3 -13425.5,12171.6 -13468.9,12103.3C-13512.3,12034.9 -13534,11968.5 -13534,11903.9C-13534,11866.4 -13521,11834.4 -13494.9,11807.6C-13468.9,11780.9 -13435.8,11767.6 -13395.5,11767.6C-13362.9,11767.6 -13335.3,11778 -13312.8,11798.8C-13290.2,11819.6 -13270.9,11850.5 -13255,11891.4C-13235.5,11940 -13214.6,11980.6 -13192,12013.2C-13169.4,12045.9 -13137.7,12072.7 -13096.7,12093.9C-13055.8,12115.1 -13002,12125.7 -12935.4,12125.7C-12843.8,12125.7 -12769.3,12104.3 -12712.1,12061.6C-12654.8,12019 -12626.2,11965.7 -12626.2,11901.8C-12626.2,11851.2 -12641.6,11810.1 -12672.5,11778.5C-12703.4,11746.9 -12743.3,11722.8 -12792.2,11706.1C-12841.2,11689.5 -12906.6,11671.8 -12988.5,11653C-13098.1,11627.4 -13189.9,11597.3 -13263.8,11563C-13337.7,11528.6 -13396.4,11481.8 -13439.8,11422.5C-13483.1,11363.1 -13504.8,11289.4 -13504.8,11201.2C-13504.8,11117.3 -13481.9,11042.7 -13436.1,10977.4C-13390.3,10912.2 -13324,10862 -13237.3,10827C-13150.5,10791.9 -13048.5,10774.4 -12931.2,10774.4C-12837.5,10774.4 -12756.5,10786 -12688.1,10809.3C-12619.8,10832.5 -12563,10863.4 -12517.9,10901.9C-12472.8,10940.5 -12439.9,10980.9 -12419,11023.2C-12398.2,11065.6 -12387.8,11106.9 -12387.8,11147.1C-12387.8,11183.9 -12400.8,11217 -12426.8,11246.5C-12452.9,11276 -12485.3,11290.8 -12524.2,11290.8C-12559.6,11290.8 -12586.5,11281.9 -12604.9,11264.2C-12623.3,11246.5 -12643.2,11217.5 -12664.7,11177.3C-12692.5,11119.7 -12725.8,11074.8 -12764.7,11042.5C-12803.5,11010.2 -12866,10994.1 -12952,10994.1C-13031.9,10994.1 -13096.2,11011.6 -13145.1,11046.6C-13194.1,11081.7 -13218.5,11123.9 -13218.5,11173.1C-13218.5,11203.7 -13210.2,11230 -13193.6,11252.2C-13176.9,11274.5 -13154,11293.5 -13124.8,11309.5C-13095.7,11325.5 -13066.2,11338 -13036.4,11347C-13006.5,11356 -12957.2,11369.2 -12888.5,11386.5C-12802.5,11406.7 -12724.6,11428.9 -12654.8,11453.2C-12585.1,11477.5 -12525.7,11507 -12476.8,11541.7C-12427.9,11576.4 -12389.7,11620.2 -12362.3,11673.3C-12334.9,11726.4 -12321.2,11791.5 -12321.2,11868.5Z" style="fill:rgb(26,0,0);"/>
                <path d="M-11136.8,11111.8C-11064.9,11111.8 -11012.7,11091.8 -10977.8,11059.9C-10938.8,11024.4 -10918.1,10977.8 -10918.1,10919.1C-10918.1,10861.3 -10938.7,10815.1 -10977.8,10779.4C-11012.7,10747.5 -11064.9,10727.5 -11136.8,10727.5L-11952.9,10727.5C-12009,10727.5 -12054.9,10736.9 -12091,10753.4C-12135.3,10773.6 -12167.9,10805.8 -12188.7,10850.1C-12205.6,10886.3 -12215.3,10932.8 -12215.3,10989.9C-12215.3,10989.9 -12215.3,12137.1 -12215.3,12137.1C-12215.3,12228.1 -12190.3,12292.4 -12150,12333.1C-12109.7,12373.9 -12045.1,12399.5 -11952.9,12399.5L-11112.8,12399.5C-11041.9,12399.5 -10989.7,12379.5 -10953.7,12346.6C-10913.9,12310.1 -10893.1,12263.1 -10893.1,12204.8C-10893.1,12144.7 -10914.2,12097.1 -10953.7,12060.9C-10989.7,12028 -11041.9,12007.9 -11112.8,12007.9C-11112.8,12007.9 -11760.3,12007.9 -11760.3,12007.9C-11760.3,12007.9 -11760.3,11719.7 -11760.3,11719.7C-11760.3,11719.7 -11191.9,11719.7 -11191.9,11719.7C-11120.7,11719.7 -11069.5,11699.3 -11035.4,11666.8C-10998.1,11631.2 -10978.5,11585.6 -10978.5,11529.2C-10978.5,11471.9 -10998.8,11426.3 -11037.2,11391.4C-11071.5,11360.2 -11122.3,11340.7 -11191.9,11340.7C-11191.9,11340.7 -11760.3,11340.7 -11760.3,11340.7C-11760.3,11340.7 -11760.3,11111.8 -11760.3,11111.8C-11760.3,11111.8 -11136.8,11111.8 -11136.8,11111.8ZM-11136.8,11038.8L-11833.2,11038.8L-11833.2,11413.6L-11191.9,11413.6C-11144.8,11413.6 -11109.5,11424.2 -11086.3,11445.4C-11063,11466.5 -11051.4,11494.5 -11051.4,11529.2C-11051.4,11563.9 -11062.9,11592.1 -11085.8,11614C-11108.7,11635.9 -11144.1,11646.8 -11191.9,11646.8L-11833.2,11646.8L-11833.2,12080.9L-11112.8,12080.9C-11064.3,12080.9 -11027.6,12092.2 -11003,12114.7C-10978.4,12137.3 -10966,12167.3 -10966,12204.8C-10966,12240.9 -10978.4,12270.2 -11003,12292.7C-11027.6,12315.3 -11064.3,12326.6 -11112.8,12326.6L-11952.9,12326.6C-12020.3,12326.6 -12068.7,12311.7 -12098.2,12281.8C-12127.6,12252 -12142.4,12203.7 -12142.4,12137.1L-12142.4,10989.9C-12142.4,10945.5 -12135.8,10909.2 -12122.6,10881.1C-12109.4,10853 -12088.8,10832.5 -12060.7,10819.7C-12032.6,10806.9 -11996.7,10800.4 -11952.9,10800.4L-11136.8,10800.4C-11087.5,10800.4 -11050.9,10811.4 -11026.9,10833.2C-11003,10855.1 -10991,10883.7 -10991,10919.1C-10991,10955.2 -11003,10984.2 -11026.9,11006.1C-11050.9,11027.9 -11087.5,11038.8 -11136.8,11038.8Z" style="fill:rgb(26,0,0);"/>
                <path d="M-9571.27,11868.5C-9571.27,11778.2 -9588.38,11702.1 -9620.52,11639.9C-9653.36,11576.3 -9699.06,11523.7 -9757.66,11482.1C-9811.62,11443.9 -9876.94,11411.1 -9953.88,11384.3C-10025.7,11359.3 -10105.8,11336.4 -10194.3,11315.7C-10261.2,11298.8 -10309.2,11285.9 -10338.3,11277.2C-10363.4,11269.5 -10388.3,11259 -10412.9,11245.5C-10431.9,11235.1 -10447.3,11223 -10458.2,11208.5C-10465.6,11198.6 -10468.6,11186.7 -10468.6,11173.1C-10468.6,11146.3 -10452.4,11125.1 -10425.7,11106C-10387.7,11078.7 -10337.1,11067 -10275.1,11067C-10210.9,11067 -10163.3,11074.6 -10134.3,11098.6C-10102.6,11124.9 -10076.1,11162 -10053.5,11209C-10053,11209.9 -10052.6,11210.8 -10052.1,11211.7C-10025.9,11260.6 -10000.8,11295.3 -9978.49,11316.8C-9948.3,11345.8 -9905.32,11363.7 -9847.22,11363.7C-9786.54,11363.7 -9735.82,11340.8 -9695.19,11294.8C-9656.59,11251 -9637.9,11201.7 -9637.9,11147.1C-9637.9,11096.4 -9650.41,11044.3 -9676.62,10991C-9701.36,10940.7 -9740,10892.2 -9793.61,10846.5C-9845.11,10802.5 -9909.64,10766.8 -9987.69,10740.2C-10062.7,10714.7 -10151.5,10701.5 -10254.3,10701.5C-10382.1,10701.5 -10493.1,10721.2 -10587.6,10759.4C-10688.8,10800.2 -10765.5,10859.4 -10818.9,10935.5C-10873.3,11013 -10900.8,11101.5 -10900.8,11201.2C-10900.8,11306.7 -10873.6,11394.5 -10821.7,11465.5C-10771.3,11534.4 -10703.5,11589.2 -10617.6,11629.1C-10539.9,11665.3 -10443.5,11697.1 -10328.1,11724.1C-10328,11724.1 -10327.9,11724.1 -10327.8,11724.2C-10248.9,11742.2 -10185.9,11759.2 -10138.8,11775.2C-10101.7,11787.8 -10071.1,11805.6 -10047.7,11829.5C-10029.7,11847.9 -10022.2,11872.3 -10022.2,11901.8C-10022.2,11942.7 -10042.1,11975.9 -10078.7,12003.2C-10124.7,12037.4 -10184.9,12052.7 -10258.4,12052.7C-10311.1,12052.7 -10353.9,12045.8 -10386.3,12029.1C-10415.7,12013.9 -10438.9,11995.1 -10455,11971.7C-10474.9,11943.1 -10493.1,11907.3 -10510.2,11864.6C-10530.9,11811.5 -10557,11772.2 -10586.3,11745.2C-10622.4,11711.9 -10666.3,11694.6 -10718.6,11694.6C-10780.1,11694.6 -10830.4,11715.9 -10870.2,11756.7C-10910,11797.6 -10930,11846.6 -10930,11903.9C-10930,11981 -10905.3,12060.7 -10853.5,12142.4C-10803.9,12220.6 -10739.3,12283.2 -10659.9,12330.1C-10659.7,12330.1 -10659.6,12330.2 -10659.5,12330.3C-10551.9,12392.9 -10415.6,12425.6 -10250.1,12425.6C-10112.8,12425.6 -9994.21,12402.1 -9894.07,12356.6C-9788.59,12308.6 -9709.01,12241.6 -9654.26,12156.9C-9599.14,12071.6 -9571.27,11975.6 -9571.27,11868.5ZM-9644.23,11868.5C-9644.23,11960.8 -9668,12043.8 -9715.53,12117.3C-9763.08,12190.9 -9832.65,12248.5 -9924.26,12290.1C-10015.9,12331.8 -10124.5,12352.6 -10250.1,12352.6C-10400.7,12352.6 -10524.9,12324.1 -10622.8,12267.2C-10692.2,12226.3 -10748.6,12171.6 -10791.9,12103.3C-10835.3,12034.9 -10857,11968.5 -10857,11903.9C-10857,11866.4 -10844,11834.4 -10818,11807.6C-10791.9,11780.9 -10758.8,11767.6 -10718.6,11767.6C-10685.9,11767.6 -10658.3,11778 -10635.8,11798.8C-10613.2,11819.6 -10594,11850.5 -10578,11891.4C-10558.6,11940 -10537.6,11980.6 -10515,12013.2C-10492.5,12045.9 -10460.7,12072.7 -10419.8,12093.9C-10378.8,12115.1 -10325.1,12125.7 -10258.4,12125.7C-10166.8,12125.7 -10092.4,12104.3 -10035.1,12061.6C-9977.87,12019 -9949.24,11965.7 -9949.24,11901.8C-9949.24,11851.2 -9964.68,11810.1 -9995.57,11778.5C-10026.5,11746.9 -10066.4,11722.8 -10115.3,11706.1C-10164.2,11689.5 -10229.6,11671.8 -10311.5,11653C-10421.2,11627.4 -10513,11597.3 -10586.9,11563C-10660.8,11528.6 -10719.4,11481.8 -10762.8,11422.5C-10806.2,11363.1 -10827.9,11289.4 -10827.9,11201.2C-10827.9,11117.3 -10805,11042.7 -10759.2,10977.4C-10713.3,10912.2 -10647.1,10862 -10560.3,10827C-10473.6,10791.9 -10371.5,10774.4 -10254.3,10774.4C-10160.6,10774.4 -10079.5,10786 -10011.2,10809.3C-9942.82,10832.5 -9886.09,10863.4 -9840.98,10901.9C-9795.87,10940.5 -9762.9,10980.9 -9742.08,11023.2C-9721.26,11065.6 -9710.85,11106.9 -9710.85,11147.1C-9710.85,11183.9 -9723.86,11217 -9749.89,11246.5C-9775.91,11276 -9808.36,11290.8 -9847.22,11290.8C-9882.62,11290.8 -9909.51,11281.9 -9927.9,11264.2C-9946.29,11246.5 -9966.25,11217.5 -9987.76,11177.3C-10015.5,11119.7 -10048.8,11074.8 -10087.7,11042.5C-10126.6,11010.2 -10189,10994.1 -10275.1,10994.1C-10354.9,10994.1 -10419.3,11011.6 -10468.2,11046.6C-10517.1,11081.7 -10541.6,11123.9 -10541.6,11173.1C-10541.6,11203.7 -10533.3,11230 -10516.6,11252.2C-10499.9,11274.5 -10477,11293.5 -10447.9,11309.5C-10418.7,11325.5 -10389.2,11338 -10359.4,11347C-10329.6,11356 -10280.3,11369.2 -10211.6,11386.5C-10125.5,11406.7 -10047.6,11428.9 -9977.87,11453.2C-9908.12,11477.5 -9848.78,11507 -9799.86,11541.7C-9750.93,11576.4 -9712.76,11620.2 -9685.35,11673.3C-9657.93,11726.4 -9644.23,11791.5 -9644.23,11868.5Z" style="fill:rgb(26,0,0);"/>
                <path d="M-8232.8,11868.5C-8232.8,11778.2 -8249.9,11702.1 -8282.05,11639.9C-8314.88,11576.3 -8360.58,11523.7 -8419.18,11482.1C-8473.15,11443.9 -8538.46,11411.1 -8615.4,11384.3C-8687.18,11359.3 -8767.33,11336.4 -8855.86,11315.7C-8922.73,11298.8 -8970.72,11285.9 -8999.81,11277.2C-9024.96,11269.5 -9049.8,11259 -9074.37,11245.5C-9093.46,11235.1 -9108.85,11223 -9119.76,11208.5C-9127.15,11198.6 -9130.15,11186.7 -9130.15,11173.1C-9130.15,11146.3 -9113.9,11125.1 -9087.23,11106C-9049.19,11078.7 -8998.64,11067 -8936.6,11067C-8872.45,11067 -8824.8,11074.6 -8795.82,11098.6C-8764.14,11124.9 -8737.63,11162 -8715,11209C-8714.56,11209.9 -8714.1,11210.8 -8713.62,11211.7C-8687.46,11260.6 -8662.37,11295.3 -8640.01,11316.8C-8609.82,11345.8 -8566.84,11363.7 -8508.74,11363.7C-8448.07,11363.7 -8397.34,11340.8 -8356.71,11294.8C-8318.11,11251 -8299.42,11201.7 -8299.42,11147.1C-8299.42,11096.4 -8311.93,11044.3 -8338.14,10991C-8362.88,10940.7 -8401.52,10892.2 -8455.13,10846.5C-8506.63,10802.5 -8571.16,10766.8 -8649.21,10740.2C-8724.2,10714.7 -8813.01,10701.5 -8915.78,10701.5C-9043.58,10701.5 -9154.64,10721.2 -9249.17,10759.4C-9350.3,10800.2 -9426.98,10859.4 -9480.38,10935.5C-9534.78,11013 -9562.33,11101.5 -9562.33,11201.2C-9562.33,11306.7 -9535.1,11394.5 -9483.21,11465.5C-9432.82,11534.4 -9365,11589.2 -9279.13,11629.1C-9201.41,11665.3 -9104.98,11697.1 -8989.67,11724.1C-8989.55,11724.1 -8989.43,11724.1 -8989.31,11724.2C-8910.45,11742.2 -8847.43,11759.2 -8800.32,11775.2C-8763.23,11787.8 -8732.65,11805.6 -8709.24,11829.5C-8691.26,11847.9 -8683.72,11872.3 -8683.72,11901.8C-8683.72,11942.7 -8703.63,11975.9 -8740.25,12003.2C-8786.19,12037.4 -8846.43,12052.7 -8919.94,12052.7C-8972.62,12052.7 -9015.43,12045.8 -9047.8,12029.1C-9077.17,12013.9 -9100.37,11995.1 -9116.55,11971.7C-9136.38,11943.1 -9154.6,11907.3 -9171.69,11864.6C-9192.43,11811.5 -9218.56,11772.2 -9247.83,11745.2C-9283.93,11711.9 -9327.86,11694.6 -9380.07,11694.6C-9441.62,11694.6 -9491.95,11715.9 -9531.75,11756.7C-9571.54,11797.6 -9591.48,11846.6 -9591.48,11903.9C-9591.48,11981 -9566.85,12060.7 -9515.06,12142.4C-9465.4,12220.6 -9400.83,12283.2 -9321.37,12330.1C-9321.24,12330.1 -9321.11,12330.2 -9320.98,12330.3C-9213.4,12392.9 -9077.17,12425.6 -8911.62,12425.6C-8774.31,12425.6 -8655.73,12402.1 -8555.59,12356.6C-8450.11,12308.6 -8370.52,12241.6 -8315.78,12156.9C-8260.66,12071.6 -8232.8,11975.6 -8232.8,11868.5ZM-8305.75,11868.5C-8305.75,11960.8 -8329.52,12043.8 -8377.06,12117.3C-8424.59,12190.9 -8494.17,12248.5 -8585.78,12290.1C-8677.39,12331.8 -8786,12352.6 -8911.62,12352.6C-9062.22,12352.6 -9186.44,12324.1 -9284.3,12267.2C-9353.7,12226.3 -9410.09,12171.6 -9453.47,12103.3C-9496.84,12034.9 -9518.53,11968.5 -9518.53,11903.9C-9518.53,11866.4 -9505.52,11834.4 -9479.49,11807.6C-9453.47,11780.9 -9420.33,11767.6 -9380.07,11767.6C-9347.46,11767.6 -9319.87,11778 -9297.31,11798.8C-9274.76,11819.6 -9255.5,11850.5 -9239.54,11891.4C-9220.1,11940 -9199.11,11980.6 -9176.56,12013.2C-9154,12045.9 -9122.25,12072.7 -9081.3,12093.9C-9040.36,12115.1 -8986.57,12125.7 -8919.94,12125.7C-8828.34,12125.7 -8753.9,12104.3 -8696.65,12061.6C-8639.39,12019 -8610.76,11965.7 -8610.76,11901.8C-8610.76,11851.2 -8626.2,11810.1 -8657.09,11778.5C-8687.97,11746.9 -8727.88,11722.8 -8776.81,11706.1C-8825.73,11689.5 -8891.14,11671.8 -8973.04,11653C-9082.69,11627.4 -9174.47,11597.3 -9248.39,11563C-9322.3,11528.6 -9380.94,11481.8 -9424.32,11422.5C-9467.69,11363.1 -9489.38,11289.4 -9489.38,11201.2C-9489.38,11117.3 -9466.48,11042.7 -9420.67,10977.4C-9374.87,10912.2 -9308.59,10862 -9221.84,10827C-9135.09,10791.9 -9033.07,10774.4 -8915.78,10774.4C-8822.09,10774.4 -8741.06,10786 -8672.7,10809.3C-8604.34,10832.5 -8547.61,10863.4 -8502.5,10901.9C-8457.39,10940.5 -8424.42,10980.9 -8403.6,11023.2C-8382.78,11065.6 -8372.37,11106.9 -8372.37,11147.1C-8372.37,11183.9 -8385.38,11217 -8411.41,11246.5C-8437.43,11276 -8469.88,11290.8 -8508.74,11290.8C-8544.14,11290.8 -8571.03,11281.9 -8589.42,11264.2C-8607.81,11246.5 -8627.77,11217.5 -8649.28,11177.3C-8677.04,11119.7 -8710.35,11074.8 -8749.22,11042.5C-8788.08,11010.2 -8850.54,10994.1 -8936.6,10994.1C-9016.41,10994.1 -9080.78,11011.6 -9129.71,11046.6C-9178.64,11081.7 -9203.1,11123.9 -9203.1,11173.1C-9203.1,11203.7 -9194.77,11230 -9178.12,11252.2C-9161.46,11274.5 -9138.56,11293.5 -9109.41,11309.5C-9080.26,11325.5 -9050.77,11338 -9020.92,11347C-8991.08,11356 -8941.81,11369.2 -8873.1,11386.5C-8787.04,11406.7 -8709.14,11428.9 -8639.39,11453.2C-8569.64,11477.5 -8510.31,11507 -8461.38,11541.7C-8412.45,11576.4 -8374.28,11620.2 -8346.87,11673.3C-8319.45,11726.4 -8305.75,11791.5 -8305.75,11868.5Z" style="fill:rgb(26,0,0);"/>
                <path d="M-8187.42,12164.2C-8187.42,12248.9 -8164.24,12311.6 -8125.16,12354.4C-8082.17,12401.5 -8027.73,12425.6 -7961.44,12425.6C-7892.68,12425.6 -7837.45,12401.4 -7794.86,12355.2C-7755.75,12312.8 -7732.33,12249.9 -7732.33,12164.2C-7732.33,12164.2 -7732.33,10961.8 -7732.33,10961.8C-7732.33,10875.8 -7755.92,10813 -7795.14,10771C-7837.66,10725.4 -7892.78,10701.5 -7961.44,10701.5C-8028.73,10701.5 -8083.26,10725.6 -8125.71,10772.1C-8164.35,10814.5 -8187.42,10877 -8187.42,10961.8L-8187.42,12164.2ZM-8114.47,12164.2L-8114.47,10961.8C-8114.47,10899.3 -8100.24,10852.5 -8071.78,10821.3C-8043.33,10790 -8006.55,10774.4 -7961.44,10774.4C-7914.94,10774.4 -7877.29,10789.9 -7848.49,10820.7C-7819.69,10851.6 -7805.28,10898.7 -7805.28,10961.8L-7805.28,12164.2C-7805.28,12227.3 -7819.69,12274.5 -7848.49,12305.8C-7877.29,12337 -7914.94,12352.6 -7961.44,12352.6C-8005.85,12352.6 -8042.46,12336.8 -8071.26,12305.2C-8100.07,12273.7 -8114.47,12226.6 -8114.47,12164.2Z" style="fill:rgb(26,0,0);"/>
                <path d="M-6871.76,10701.5C-6998.45,10701.5 -7111.49,10721.7 -7211.03,10761.3C-7313.08,10801.9 -7399.56,10860.6 -7470.69,10937.1C-7541.21,11013 -7595.32,11104.8 -7632.5,11212.9C-7668.64,11318 -7686.95,11433.4 -7686.95,11559.3C-7686.95,11682 -7669.49,11796.1 -7634.93,11901.6C-7599.3,12010.4 -7546.37,12103.4 -7476.65,12180.7C-7406.34,12258.8 -7318.8,12319.5 -7213.71,12362.4C-7111.19,12404.2 -6995.17,12425.6 -6865.51,12425.6C-6735.17,12425.6 -6619.61,12404.7 -6518.65,12364.1C-6414.98,12322.3 -6327.66,12261.8 -6256.48,12182.9C-6186,12104.7 -6132.97,12012.5 -6097.73,11906C-6063.53,11802.7 -6046.15,11687.8 -6046.15,11561.4C-6046.15,11389.4 -6078.28,11239.8 -6141.11,11112.3C-6206.07,10980.4 -6301.83,10878.8 -6428.28,10807.2C-6551.81,10737.3 -6699.49,10701.5 -6871.76,10701.5ZM-6871.76,10774.4C-6713.53,10774.4 -6577.67,10806.5 -6464.2,10870.7C-6350.73,10934.9 -6264.85,11026.2 -6206.55,11144.5C-6148.25,11262.8 -6119.11,11401.8 -6119.11,11561.4C-6119.11,11679.4 -6135.07,11786.6 -6166.99,11883.1C-6198.92,11979.6 -6246.8,12063.2 -6310.65,12134C-6374.5,12204.8 -6452.92,12258.9 -6545.92,12296.4C-6638.92,12333.9 -6745.45,12352.6 -6865.51,12352.6C-6984.88,12352.6 -7091.76,12333.3 -7186.15,12294.8C-7280.53,12256.3 -7359.3,12202 -7422.46,12131.9C-7485.61,12061.8 -7533.32,11977.5 -7565.6,11878.9C-7597.87,11780.4 -7614,11673.9 -7614,11559.3C-7614,11442.1 -7597.17,11334.5 -7563.51,11236.6C-7529.86,11138.8 -7481.1,11055.5 -7417.25,10986.8C-7353.4,10918.1 -7275.67,10865.5 -7184.06,10829.1C-7092.45,10792.6 -6988.35,10774.4 -6871.76,10774.4ZM-6432.45,11559.3C-6432.45,11447.6 -6450.49,11350.8 -6486.58,11268.9C-6522.67,11187 -6574.2,11125.1 -6641.17,11083.1C-6708.15,11041.1 -6785.01,11020.1 -6871.76,11020.1C-6933.53,11020.1 -6990.61,11031.7 -7043.01,11055C-7095.4,11078.2 -7140.52,11112.1 -7178.34,11156.5C-7216.16,11200.9 -7246.01,11257.6 -7267.87,11326.7C-7289.73,11395.7 -7300.66,11473.3 -7300.66,11559.3C-7300.66,11646.1 -7289.73,11724.5 -7267.87,11794.6C-7246.01,11864.7 -7215.12,11922.8 -7175.22,11969C-7135.31,12015.1 -7089.51,12049.7 -7037.8,12072.6C-6986.1,12095.5 -6929.36,12106.9 -6867.6,12106.9C-6788.48,12106.9 -6715.78,12087.1 -6649.5,12047.6C-6583.23,12008 -6530.48,11947 -6491.27,11864.4C-6452.06,11781.8 -6432.45,11680.1 -6432.45,11559.3ZM-6505.4,11559.3C-6505.4,11667.6 -6522,11759 -6557.17,11833.1C-6589.52,11901.2 -6632.21,11952.3 -6686.89,11984.9C-6741.8,12017.7 -6802.05,12034 -6867.6,12034C-6918.62,12034 -6965.54,12024.8 -7008.26,12005.9C-7050.38,11987.2 -7087.53,11958.9 -7120.03,11921.3C-7153.93,11882.1 -7179.65,11832.4 -7198.22,11772.9C-7218.06,11709.3 -7227.71,11638.1 -7227.71,11559.3C-7227.71,11481.5 -7218.11,11411.2 -7198.32,11348.7C-7179.74,11290 -7154.94,11241.5 -7122.8,11203.8C-7092.22,11167.9 -7055.78,11140.5 -7013.42,11121.7C-6970.09,11102.4 -6922.84,11093.1 -6871.76,11093.1C-6799.64,11093.1 -6735.6,11110 -6679.93,11144.9C-6624.81,11179.4 -6583.04,11230.9 -6553.34,11298.3C-6520.92,11371.9 -6505.4,11459 -6505.4,11559.3Z" style="fill:rgb(26,0,0);"/>
                <path d="M-5474.09,10920.1C-5490.71,10893.8 -5506.81,10868.5 -5522.4,10844.3C-5541.09,10815.2 -5559.54,10791.7 -5577.4,10773.4C-5598.61,10751.7 -5623.24,10734.4 -5651.35,10721.6C-5679.57,10708.7 -5713.33,10701.5 -5752.93,10701.5C-5802.51,10701.5 -5848.72,10715.2 -5891.49,10742.9C-5935.02,10771.1 -5965.82,10807.7 -5984.62,10852.2C-5984.88,10852.8 -5985.13,10853.5 -5985.37,10854.1C-5999,10889 -6007.02,10936.9 -6007.02,10998.2L-6007.02,12175.6C-6007.02,12254.7 -5985.64,12313.9 -5949.45,12355.3C-5909.18,12401.4 -5856.14,12425.6 -5789.37,12425.6C-5724.96,12425.6 -5672.41,12402.3 -5631.23,12356.8C-5593.9,12315.7 -5571.72,12256 -5571.72,12175.6L-5571.72,11526.8C-5400.45,11789.4 -5125.93,12210.3 -5125.93,12210.3C-5125.62,12210.8 -5125.31,12211.2 -5124.99,12211.7C-5108.04,12236.4 -5091.1,12260.6 -5074.16,12284.2C-5054.22,12312 -5032.57,12336.3 -5009.31,12357.1C-4982.48,12381 -4953.59,12398.3 -4922.93,12409.3C-4893.4,12419.9 -4860.23,12425.6 -4823.31,12425.6C-4742.23,12425.6 -4682.76,12397.8 -4642.22,12348.9C-4605.69,12304.9 -4583.79,12239.8 -4583.79,12151.7L-4583.79,10951.4C-4583.79,10870.6 -4605.08,10811.2 -4640.24,10770.8C-4679.52,10725.6 -4732.45,10701.5 -4800.4,10701.5C-4866.9,10701.5 -4919.14,10725.6 -4958.29,10771.1C-4992.9,10811.4 -5013.89,10870.8 -5013.89,10951.4C-5013.89,10951.4 -5013.89,11616.5 -5013.89,11616.5C-5013.89,11616.5 -5474.09,10920.1 -5474.09,10920.1L-5474.09,10920.1ZM-5535.36,10959.7L-4940.94,11859.2L-4940.94,10951.4C-4940.94,10892.4 -4928.28,10848.2 -4902.94,10818.7C-4877.61,10789.2 -4843.43,10774.4 -4800.4,10774.4C-4755.99,10774.4 -4720.94,10789.2 -4695.26,10818.7C-4669.58,10848.2 -4656.74,10892.4 -4656.74,10951.4L-4656.74,12151.7C-4656.74,12285.6 -4712.27,12352.6 -4823.31,12352.6C-4851.07,12352.6 -4876.05,12348.6 -4898.26,12340.6C-4920.47,12332.7 -4941.29,12320 -4960.72,12302.6C-4980.15,12285.3 -4998.2,12265 -5014.85,12241.7C-5031.51,12218.5 -5048.17,12194.7 -5064.82,12170.4L-5644.67,11281.4L-5644.67,12175.6C-5644.67,12233.9 -5658.2,12278 -5685.27,12307.8C-5712.33,12337.7 -5747.03,12352.6 -5789.37,12352.6C-5833.09,12352.6 -5868.14,12337.5 -5894.51,12307.3C-5920.89,12277.1 -5934.07,12233.2 -5934.07,12175.6L-5934.07,10998.2C-5934.07,10948.3 -5928.52,10909.1 -5917.41,10880.6C-5904.23,10849.4 -5882.37,10823.9 -5851.83,10804.1C-5821.29,10784.3 -5788.33,10774.4 -5752.93,10774.4C-5725.17,10774.4 -5701.4,10778.9 -5681.62,10788C-5661.85,10797 -5644.49,10809.1 -5629.57,10824.4C-5614.65,10839.7 -5599.38,10859.4 -5583.77,10883.7C-5568.15,10908 -5552.02,10933.4 -5535.36,10959.7Z" style="fill:rgb(26,0,0);"/>
                <path d="M-3169.32,11868.5C-3169.32,11778.2 -3186.43,11702.1 -3218.57,11639.9C-3251.4,11576.3 -3297.1,11523.7 -3355.7,11482.1C-3409.67,11443.9 -3474.99,11411.1 -3551.92,11384.3C-3623.71,11359.3 -3703.86,11336.4 -3792.39,11315.7C-3859.25,11298.8 -3907.24,11285.9 -3936.34,11277.2C-3961.49,11269.5 -3986.33,11259 -4010.89,11245.5C-4029.99,11235.1 -4045.37,11223 -4056.28,11208.5C-4063.68,11198.6 -4066.68,11186.7 -4066.68,11173.1C-4066.68,11146.3 -4050.43,11125.1 -4023.75,11106C-3985.72,11078.7 -3935.17,11067 -3873.13,11067C-3808.97,11067 -3761.32,11074.6 -3732.35,11098.6C-3700.67,11124.9 -3674.15,11162 -3651.52,11209C-3651.08,11209.9 -3650.62,11210.8 -3650.14,11211.7C-3623.99,11260.6 -3598.89,11295.3 -3576.53,11316.8C-3546.35,11345.8 -3503.36,11363.7 -3445.27,11363.7C-3384.59,11363.7 -3333.87,11340.8 -3293.23,11294.8C-3254.63,11251 -3235.95,11201.7 -3235.95,11147.1C-3235.95,11096.4 -3248.46,11044.3 -3274.66,10991C-3299.41,10940.7 -3338.04,10892.2 -3391.65,10846.5C-3443.16,10802.5 -3507.69,10766.8 -3585.74,10740.2C-3660.73,10714.7 -3749.53,10701.5 -3852.31,10701.5C-3980.11,10701.5 -4091.16,10721.2 -4185.69,10759.4C-4286.83,10800.2 -4363.5,10859.4 -4416.9,10935.5C-4471.31,11013 -4498.86,11101.5 -4498.86,11201.2C-4498.86,11306.7 -4471.63,11394.5 -4419.74,11465.5C-4369.35,11534.4 -4301.52,11589.2 -4215.66,11629.1C-4137.94,11665.3 -4041.5,11697.1 -3926.2,11724.1C-3926.08,11724.1 -3925.95,11724.1 -3925.83,11724.2C-3846.97,11742.2 -3783.96,11759.2 -3736.84,11775.2C-3699.75,11787.8 -3669.18,11805.6 -3645.77,11829.5C-3627.79,11847.9 -3620.24,11872.3 -3620.24,11901.8C-3620.24,11942.7 -3640.16,11975.9 -3676.77,12003.2C-3722.72,12037.4 -3782.96,12052.7 -3856.47,12052.7C-3909.14,12052.7 -3951.95,12045.8 -3984.33,12029.1C-4013.7,12013.9 -4036.9,11995.1 -4053.08,11971.7C-4072.9,11943.1 -4091.13,11907.3 -4108.21,11864.6C-4128.95,11811.5 -4155.09,11772.2 -4184.36,11745.2C-4220.46,11711.9 -4264.39,11694.6 -4316.6,11694.6C-4378.15,11694.6 -4428.48,11715.9 -4468.28,11756.7C-4508.06,11797.6 -4528.01,11846.6 -4528.01,11903.9C-4528.01,11981 -4503.38,12060.7 -4451.59,12142.4C-4401.93,12220.6 -4337.35,12283.2 -4257.9,12330.1C-4257.76,12330.1 -4257.63,12330.2 -4257.5,12330.3C-4149.93,12392.9 -4013.69,12425.6 -3848.14,12425.6C-3710.83,12425.6 -3592.25,12402.1 -3492.12,12356.6C-3386.63,12308.6 -3307.05,12241.6 -3252.31,12156.9C-3197.19,12071.6 -3169.32,11975.6 -3169.32,11868.5ZM-3242.27,11868.5C-3242.27,11960.8 -3266.04,12043.8 -3313.58,12117.3C-3361.12,12190.9 -3430.7,12248.5 -3522.3,12290.1C-3613.91,12331.8 -3722.53,12352.6 -3848.14,12352.6C-3998.74,12352.6 -4122.97,12324.1 -4220.83,12267.2C-4290.23,12226.3 -4346.61,12171.6 -4389.99,12103.3C-4433.37,12034.9 -4455.05,11968.5 -4455.05,11903.9C-4455.05,11866.4 -4442.04,11834.4 -4416.02,11807.6C-4389.99,11780.9 -4356.85,11767.6 -4316.6,11767.6C-4283.98,11767.6 -4256.39,11778 -4233.84,11798.8C-4211.28,11819.6 -4192.02,11850.5 -4176.06,11891.4C-4156.63,11940 -4135.64,11980.6 -4113.08,12013.2C-4090.53,12045.9 -4058.77,12072.7 -4017.83,12093.9C-3976.88,12115.1 -3923.1,12125.7 -3856.47,12125.7C-3764.86,12125.7 -3690.43,12104.3 -3633.17,12061.6C-3575.92,12019 -3547.29,11965.7 -3547.29,11901.8C-3547.29,11851.2 -3562.73,11810.1 -3593.61,11778.5C-3624.5,11746.9 -3664.4,11722.8 -3713.33,11706.1C-3762.26,11689.5 -3827.67,11671.8 -3909.56,11653C-4019.22,11627.4 -4111,11597.3 -4184.91,11563C-4258.82,11528.6 -4317.47,11481.8 -4360.84,11422.5C-4404.22,11363.1 -4425.91,11289.4 -4425.91,11201.2C-4425.91,11117.3 -4403,11042.7 -4357.2,10977.4C-4311.39,10912.2 -4245.12,10862 -4158.36,10827C-4071.61,10791.9 -3969.59,10774.4 -3852.31,10774.4C-3758.62,10774.4 -3677.59,10786 -3609.23,10809.3C-3540.87,10832.5 -3484.13,10863.4 -3439.02,10901.9C-3393.91,10940.5 -3360.95,10980.9 -3340.13,11023.2C-3319.31,11065.6 -3308.9,11106.9 -3308.9,11147.1C-3308.9,11183.9 -3321.91,11217 -3347.93,11246.5C-3373.96,11276 -3406.4,11290.8 -3445.27,11290.8C-3480.66,11290.8 -3507.56,11281.9 -3525.95,11264.2C-3544.34,11246.5 -3564.29,11217.5 -3585.81,11177.3C-3613.57,11119.7 -3646.88,11074.8 -3685.74,11042.5C-3724.61,11010.2 -3787.07,10994.1 -3873.13,10994.1C-3952.94,10994.1 -4017.31,11011.6 -4066.24,11046.6C-4115.16,11081.7 -4139.63,11123.9 -4139.63,11173.1C-4139.63,11203.7 -4131.3,11230 -4114.64,11252.2C-4097.99,11274.5 -4075.08,11293.5 -4045.93,11309.5C-4016.79,11325.5 -3987.29,11338 -3957.45,11347C-3927.61,11356 -3878.33,11369.2 -3809.62,11386.5C-3723.57,11406.7 -3645.66,11428.9 -3575.92,11453.2C-3506.17,11477.5 -3446.83,11507 -3397.9,11541.7C-3348.97,11576.4 -3310.8,11620.2 -3283.39,11673.3C-3255.98,11726.4 -3242.27,11791.5 -3242.27,11868.5Z" style="fill:rgb(26,0,0);"/>
            </g>
            <g transform="matrix(1,0,0,1,-1284.91,5353.36)">
                <text x="-13647.4px" y="10340.2px" style="font-family:'ArialRoundedMTBold', 'Arial Rounded MT Bold', sans-serif;font-size:2389px;fill:rgb(0,183,255);">MIXT<tspan x="-8124.04px -6405.78px " y="10340.2px 10340.2px ">AP</tspan>E</text>
                <text x="-13647.4px" y="12326.6px" style="font-family:'ArialRoundedMTBold', 'Arial Rounded MT Bold', sans-serif;font-size:2132px;fill:rgb(0,183,255);">S<tspan x="-12309px -10970.5px -9632px -8293.52px -7709.78px -6104.8px -4568.53px " y="12326.6px 12326.6px 12326.6px 12326.6px 12326.6px 12326.6px 12326.6px ">ESSIONS</tspan></text>
            </g>
            <g transform="matrix(1,0,0,1,-1284.91,5353.36)">
                <path d="M-12954.1,10100.2C-12954.1,10100.4 -12954,10100.6 -12954,10100.8C-12944.6,10136.8 -12935.4,10171.4 -12926.4,10204.7C-12915.7,10244 -12901.1,10279.8 -12882.6,10312.2C-12861.1,10349.8 -12831.2,10380.8 -12792.6,10405C-12753.9,10429.1 -12707,10442.3 -12651.2,10442.3C-12576.5,10442.3 -12518.8,10420.7 -12476.5,10382.8C-12436,10346.5 -12408.9,10305.8 -12393.8,10261.7C-12382.1,10227.4 -12366.9,10173.6 -12348.4,10100.3C-12348.4,10100.2 -12348.4,10100.2 -12348.4,10100.2L-12217.9,9581.78C-12217.9,9877.35 -12217.9,10173.4 -12217.9,10173.4C-12217.9,10261 -12194.4,10325.5 -12154.8,10369.3C-12111,10417.6 -12055.4,10442.3 -11987.5,10442.3C-11915.5,10442.3 -11858.7,10416.9 -11815.9,10368.9C-11776.8,10325.2 -11753.6,10260.8 -11753.6,10173.4L-11753.6,8820.22C-11753.6,8714.06 -11789,8645.6 -11844.2,8608.55C-11893.3,8575.69 -11959,8557.13 -12042.3,8557.13C-12042.3,8557.13 -12149.6,8557.13 -12149.6,8557.13C-12226.7,8557.13 -12282.5,8565.91 -12317.3,8579.84C-12363.9,8598.48 -12398.8,8631.55 -12421.2,8680C-12436.3,8712.81 -12454,8766.11 -12473.3,8840.13C-12473.3,8840.13 -12577.8,9233.99 -12651.2,9510.88C-12651.2,9510.88 -12829.2,8840.13 -12829.2,8840.13C-12848.5,8766.11 -12866.2,8712.81 -12881.3,8680C-12903.7,8631.55 -12938.6,8598.48 -12985.2,8579.84C-13020,8565.91 -13075.7,8557.13 -13152.8,8557.13C-13152.8,8557.13 -13260.2,8557.13 -13260.2,8557.13C-13343.5,8557.13 -13409.2,8575.69 -13458.2,8608.55C-13513.5,8645.6 -13548.9,8714.06 -13548.9,8820.22C-13548.9,8820.22 -13548.9,10173.4 -13548.9,10173.4C-13548.9,10262.1 -13525.1,10326.9 -13485.4,10370.2C-13441.9,10417.7 -13386.1,10442.3 -13317.3,10442.3C-13246.3,10442.3 -13189.8,10417 -13146.8,10368.9C-13107.8,10325.2 -13084.6,10260.8 -13084.6,10173.4C-13084.6,10173.4 -13084.6,9877.35 -13084.6,9581.78C-13084.6,9581.78 -12954.1,10100.2 -12954.1,10100.2ZM-12883.4,10082.4L-13157.5,8992.86L-13157.5,10173.4C-13157.5,10238.7 -13172.1,10287.7 -13201.3,10320.3C-13230.4,10353 -13269.1,10369.3 -13317.3,10369.3C-13364,10369.3 -13402.1,10353.2 -13431.6,10320.9C-13461.2,10288.7 -13476,10239.5 -13476,10173.4L-13476,8820.22C-13476,8745.56 -13456.5,8695.21 -13417.6,8669.16C-13378.8,8643.1 -13326.3,8630.08 -13260.2,8630.08L-13152.8,8630.08C-13088.3,8630.08 -13041.4,8635.91 -13012.3,8647.58C-12983.1,8659.24 -12961.5,8680.24 -12947.5,8710.57C-12933.5,8740.9 -12917.6,8790.28 -12899.7,8858.71L-12651.2,9795.42L-12402.8,8858.71C-12384.9,8790.28 -12369,8740.9 -12355,8710.57C-12341,8680.24 -12319.4,8659.24 -12290.2,8647.58C-12261,8635.91 -12214.2,8630.08 -12149.6,8630.08L-12042.3,8630.08C-11976.2,8630.08 -11923.7,8643.1 -11884.9,8669.16C-11846,8695.21 -11826.5,8745.56 -11826.5,8820.22L-11826.5,10173.4C-11826.5,10238.7 -11841.1,10287.7 -11870.3,10320.3C-11899.4,10353 -11938.5,10369.3 -11987.5,10369.3C-12033.4,10369.3 -12071.1,10353 -12100.7,10320.3C-12130.2,10287.7 -12145,10238.7 -12145,10173.4L-12145,8992.86L-12419.1,10082.4C-12437,10153.1 -12451.6,10205.1 -12462.9,10238.1C-12474.1,10271.2 -12494.9,10301.3 -12525.3,10328.5C-12555.6,10355.7 -12597.6,10369.3 -12651.2,10369.3C-12691.7,10369.3 -12725.9,10360.6 -12753.9,10343.1C-12781.9,10325.6 -12803.7,10303.2 -12819.2,10276C-12834.8,10248.8 -12847,10218.7 -12856,10185.6C-12864.9,10152.6 -12874,10118.1 -12883.4,10082.4Z"/>
                <path d="M-11529.7,10158.2C-11529.7,10250.5 -11504.8,10318.8 -11462.2,10365.4C-11415.8,10416.4 -11356.9,10442.3 -11285.3,10442.3C-11210.9,10442.3 -11151.1,10416.2 -11105.1,10366.3C-11062.5,10320.1 -11037.3,10251.6 -11037.3,10158.2C-11037.3,10158.2 -11037.3,8810.89 -11037.3,8810.89C-11037.3,8717.28 -11062.7,8648.84 -11105.4,8603.07C-11151.3,8553.75 -11211,8527.96 -11285.3,8527.96C-11358,8527.96 -11417,8553.92 -11462.8,8604.28C-11504.9,8650.45 -11529.7,8718.54 -11529.7,8810.89C-11529.7,8810.89 -11529.7,10158.2 -11529.7,10158.2ZM-11456.7,10158.2L-11456.7,8810.89C-11456.7,8740.9 -11440.8,8688.4 -11408.9,8653.41C-11377,8618.41 -11335.8,8600.92 -11285.3,8600.92C-11233.2,8600.92 -11191,8618.22 -11158.7,8652.83C-11126.4,8687.43 -11110.3,8740.12 -11110.3,8810.89L-11110.3,10158.2C-11110.3,10229 -11126.4,10281.8 -11158.7,10316.8C-11191,10351.8 -11233.2,10369.3 -11285.3,10369.3C-11335,10369.3 -11376.1,10351.6 -11408.3,10316.3C-11440.6,10280.9 -11456.7,10228.2 -11456.7,10158.2Z"/>
                <path d="M-10846.2,9966.5C-10846.2,9966.54 -10846.2,9966.57 -10846.3,9966.6C-10913.7,10065.5 -10944.1,10150.5 -10944.1,10218.9C-10944.1,10291.7 -10920.5,10346.1 -10879.4,10384.3C-10838.6,10422.2 -10787.5,10442.3 -10725.3,10442.3C-10687.2,10442.3 -10654.1,10435.7 -10625.8,10423.7C-10596.6,10411.3 -10571.4,10394.4 -10550.1,10373.1C-10531.9,10354.8 -10516.3,10336 -10503.3,10316.8C-10492.7,10301 -10474.7,10273.4 -10449.5,10234C-10449.5,10234 -10284.9,9982.98 -10192,9841.28C-10192,9841.28 -9951.7,10219.5 -9951.7,10219.5C-9951.54,10219.7 -9951.37,10220 -9951.2,10220.3C-9912.57,10279.4 -9886.15,10319.2 -9871.95,10339.7C-9852.23,10368.2 -9826.62,10392.2 -9794.84,10411.4C-9761.95,10431.2 -9721.97,10442.3 -9674.33,10442.3C-9630.93,10442.3 -9592.09,10432.4 -9557.59,10413.5C-9521.41,10393.6 -9493.59,10366.6 -9473.74,10332.7C-9453.98,10299 -9443.9,10261.9 -9443.9,10221.2C-9443.9,10182.9 -9453.03,10142.2 -9472.68,10099.3C-9488.63,10064.4 -9514.01,10020.5 -9549.23,9967.62C-9549.22,9967.63 -9885.58,9449.56 -9885.58,9449.56C-9885.58,9449.56 -9575.2,8985.6 -9575.2,8985.6C-9504.37,8879.81 -9473.06,8794.38 -9473.06,8732.73C-9473.06,8676.61 -9494.04,8627.81 -9537.35,8586.94C-9578.04,8548.54 -9629.97,8527.96 -9694.16,8527.96C-9729.59,8527.96 -9760.63,8534.56 -9787.49,8546.56C-9814.67,8558.7 -9839.43,8576.68 -9861.4,8600.96C-9878.49,8619.85 -9896.37,8643.6 -9914.81,8672.38C-9930.67,8697.14 -9949.81,8726.91 -9972.23,8761.7C-9972.23,8761.7 -10102.4,8958.83 -10183.2,9081.34C-10183.2,9081.34 -10379.8,8763.24 -10379.8,8763.24C-10430.9,8680.34 -10471.4,8623.95 -10500.3,8593.38C-10540,8551.39 -10594.5,8527.96 -10665.9,8527.96C-10727.1,8527.96 -10778.7,8547.61 -10821.2,8585.59C-10868,8627.42 -10889.3,8675.61 -10889.3,8728.06C-10889.3,8769.27 -10880,8812.35 -10860.4,8857.08C-10844.1,8894.33 -10819.7,8938.98 -10787.1,8990.88C-10786.9,8991.15 -10786.7,8991.43 -10786.6,8991.7C-10786.6,8991.7 -10568,9329.06 -10491,9447.84C-10491,9447.84 -10846.2,9966.5 -10846.2,9966.5ZM-10786,10007.7L-10403.4,9448.96L-10725.3,8952.03C-10755.7,8903.82 -10778.4,8862.41 -10793.6,8827.8C-10808.8,8793.19 -10816.3,8759.95 -10816.3,8728.06C-10816.3,8695.4 -10801.8,8666.05 -10772.6,8639.99C-10743.4,8613.94 -10707.8,8600.92 -10665.9,8600.92C-10617.6,8600.92 -10580.1,8615.11 -10553.3,8643.49C-10526.5,8671.88 -10489.3,8724.57 -10441.9,8801.55L-10185.3,9216.83L-9911.13,8801.55C-9888.57,8766.56 -9869.33,8736.62 -9853.39,8711.73C-9837.44,8686.85 -9822.08,8666.24 -9807.31,8649.91C-9792.53,8633.58 -9776.01,8621.33 -9757.73,8613.16C-9739.46,8605 -9718.26,8600.92 -9694.16,8600.92C-9650.61,8600.92 -9615.03,8613.94 -9587.42,8639.99C-9559.82,8666.05 -9546.01,8696.96 -9546.01,8732.73C-9546.01,8784.83 -9575.95,8855.6 -9635.83,8945.03L-9972.95,9448.96L-9610.17,10007.7C-9577.51,10056.7 -9553.79,10097.3 -9539.01,10129.6C-9524.24,10161.9 -9516.85,10192.4 -9516.85,10221.2C-9516.85,10248.4 -9523.46,10273.3 -9536.68,10295.8C-9549.9,10318.4 -9568.56,10336.3 -9592.67,10349.5C-9616.78,10362.7 -9644,10369.3 -9674.33,10369.3C-9706.99,10369.3 -9734.6,10362.5 -9757.15,10348.9C-9779.7,10335.3 -9797.98,10318.4 -9811.97,10298.2C-9825.97,10278 -9852.02,10238.7 -9890.13,10180.4L-10191.1,9706.76L-10510.7,10194.4C-10535.6,10233.2 -10553.3,10260.5 -10563.8,10276C-10574.3,10291.6 -10586.9,10306.7 -10601.7,10321.5C-10616.5,10336.3 -10634,10347.9 -10654.2,10356.5C-10674.4,10365.1 -10698.1,10369.3 -10725.3,10369.3C-10767.3,10369.3 -10802.1,10356.5 -10829.7,10330.8C-10857.4,10305.2 -10871.2,10267.8 -10871.2,10218.9C-10871.2,10161.3 -10842.8,10090.9 -10786,10007.7Z"/>
                <path d="M-8169.54,8988.82C-8088.49,8988.82 -8028.84,8967.24 -7988.31,8931.52C-7942.97,8891.54 -7919.28,8839.18 -7919.28,8773.56C-7919.28,8708.34 -7942.51,8656.01 -7986.97,8615.69C-8027.1,8579.31 -8087.14,8557.13 -8169.54,8557.13C-8169.54,8557.13 -9270.72,8557.13 -9270.72,8557.13C-9348.64,8557.13 -9407.16,8577.96 -9448.26,8613.18C-9494.18,8652.55 -9518.64,8705.57 -9518.64,8773.56C-9518.64,8838.94 -9495.48,8891.05 -9451.49,8930.87C-9411.76,8966.84 -9352.33,8988.82 -9270.72,8988.82C-9270.72,8988.82 -8965.72,8988.82 -8965.72,8988.82C-8965.72,9254.97 -8965.72,10158.2 -8965.72,10158.2C-8965.72,10251.6 -8940.57,10320.1 -8897.99,10366.3C-8851.82,10416.4 -8792.39,10442.3 -8718.96,10442.3C-8646.33,10442.3 -8587.47,10416.6 -8541.66,10366.9C-8499.62,10321.2 -8474.53,10252.5 -8474.53,10158.2C-8474.53,10158.2 -8474.53,8988.82 -8474.53,8988.82C-8474.53,8988.82 -8169.54,8988.82 -8169.54,8988.82ZM-8169.54,8915.87L-8547.48,8915.87L-8547.48,10158.2C-8547.48,10229.7 -8563.43,10282.8 -8595.31,10317.4C-8627.19,10352 -8668.41,10369.3 -8718.96,10369.3C-8770.29,10369.3 -8812.09,10351.8 -8844.36,10316.8C-8876.63,10281.8 -8892.77,10229 -8892.77,10158.2L-8892.77,8915.87L-9270.72,8915.87C-9329.82,8915.87 -9373.76,8902.84 -9402.53,8876.79C-9431.31,8850.74 -9445.69,8816.33 -9445.69,8773.56C-9445.69,8729.23 -9430.72,8694.24 -9400.78,8668.57C-9370.84,8642.91 -9327.49,8630.08 -9270.72,8630.08L-8169.54,8630.08C-8109.66,8630.08 -8065.13,8643.3 -8035.97,8669.74C-8006.81,8696.18 -7992.23,8730.79 -7992.23,8773.56C-7992.23,8816.33 -8007,8850.74 -8036.56,8876.79C-8066.11,8902.84 -8110.43,8915.87 -8169.54,8915.87Z"/>
                <path d="M-6911.4,10172.5C-6911.17,10173.1 -6910.93,10173.7 -6910.68,10174.3C-6899.61,10201.2 -6886.37,10232.2 -6870.96,10267.4C-6852.59,10309.3 -6834.81,10340.1 -6818.79,10360.3C-6798.92,10385.5 -6774.42,10405.4 -6745.2,10420C-6716.64,10434.3 -6682.56,10442.3 -6642.58,10442.3C-6575.8,10442.3 -6518.74,10418.7 -6471.43,10371.3C-6422.98,10322.9 -6400.49,10268.8 -6400.49,10210.7C-6400.49,10166.9 -6418.32,10096.2 -6458.45,9999.83C-6458.45,9999.84 -6904.79,8897.38 -6904.79,8897.38C-6925.96,8841.73 -6943.42,8797.23 -6957.16,8763.86C-6972.77,8725.95 -6991.96,8690.51 -7014.7,8657.5C-7040.69,8619.79 -7074.69,8588.8 -7116.98,8564.85C-7158.94,8541.09 -7210.98,8527.96 -7273.66,8527.96C-7335.47,8527.96 -7387.12,8541.04 -7429.17,8564.85C-7471.66,8588.91 -7505.85,8620.51 -7531.96,8659.42C-7554.32,8692.73 -7575.59,8734.48 -7595.31,8784.89C-7612.8,8829.58 -7627.76,8867.86 -7640.2,8899.74C-7640.2,8899.74 -8077.49,10009.9 -8077.49,10009.9C-8096.27,10056.4 -8109.68,10092.8 -8117.85,10118.9C-8127.96,10151.3 -8132.84,10182.7 -8132.84,10213C-8132.84,10272.9 -8109.57,10327.1 -8060.07,10374.3C-8012.12,10420 -7956.68,10442.3 -7894.24,10442.3C-7815.02,10442.3 -7759.96,10414.5 -7725.15,10368.3C-7700.13,10335.1 -7668.78,10271.6 -7633.41,10176.7L-7569.43,10004.8C-7569.43,10004.8 -6975.18,10004.8 -6975.18,10004.8C-6975.18,10004.8 -6911.4,10172.5 -6911.4,10172.5ZM-6843.22,10146.5L-6924.88,9931.9L-7620.11,9931.9L-7701.77,10151.2C-7733.65,10236.7 -7760.87,10294.5 -7783.42,10324.4C-7805.98,10354.4 -7842.91,10369.3 -7894.24,10369.3C-7937.79,10369.3 -7976.28,10353.4 -8009.73,10321.5C-8043.16,10289.6 -8059.89,10253.5 -8059.89,10213C-8059.89,10189.7 -8056,10165.6 -8048.22,10140.7C-8040.44,10115.8 -8027.61,10081.2 -8009.73,10036.9L-7572.29,8926.37C-7559.84,8894.49 -7544.87,8856.18 -7527.38,8811.47C-7509.88,8766.75 -7491.21,8729.62 -7471.38,8700.07C-7451.55,8670.52 -7425.5,8646.6 -7393.23,8628.33C-7360.95,8610.05 -7321.1,8600.92 -7273.66,8600.92C-7225.45,8600.92 -7185.2,8610.05 -7152.93,8628.33C-7120.65,8646.6 -7094.6,8670.13 -7074.77,8698.9C-7054.94,8727.67 -7038.22,8758.59 -7024.61,8791.64C-7011,8824.69 -6993.7,8868.82 -6972.7,8924.04L-6525.93,10027.5C-6490.94,10111.5 -6473.44,10172.6 -6473.44,10210.7C-6473.44,10250.4 -6489.97,10286.7 -6523.02,10319.8C-6556.07,10352.8 -6595.92,10369.3 -6642.58,10369.3C-6669.8,10369.3 -6693.13,10364.5 -6712.57,10354.8C-6732.02,10345 -6748.35,10331.8 -6761.57,10315.1C-6774.79,10298.4 -6788.98,10272.7 -6804.14,10238.1C-6819.31,10203.5 -6832.33,10173 -6843.22,10146.5ZM-7529.13,9671.77L-7018.2,9671.77L-7275.99,8966.03L-7529.13,9671.77ZM-7425.46,9598.82C-7425.46,9598.82 -7339.38,9358.82 -7275.37,9180.36C-7275.37,9180.36 -7122.51,9598.82 -7122.51,9598.82L-7425.46,9598.82Z"/>
                <path d="M-5555.4,9747.05C-5321.91,9747.05 -5147.17,9694.09 -5029.15,9595.31C-4906.35,9492.53 -4842.04,9342.67 -4842.04,9143.34C-4842.04,9051.52 -4857.3,8968.95 -4887.03,8895.5C-4917.83,8819.4 -4963.02,8755.16 -5022.36,8702.61C-5081.37,8650.35 -5151.29,8612.73 -5232.36,8590.18C-5307.78,8568.67 -5415.42,8557.13 -5555.4,8557.13C-5555.4,8557.13 -5999.84,8557.13 -5999.84,8557.13C-6099.43,8557.13 -6170.69,8583.06 -6216.43,8625.74C-6263.24,8669.43 -6292.09,8740.43 -6292.09,8842.38L-6292.09,10160.5C-6292.09,10250.9 -6267.61,10318.4 -6225.51,10365.1C-6179.79,10415.8 -6120.04,10442.3 -6045.33,10442.3C-5973.82,10442.3 -5914.74,10416.3 -5867.81,10364.9C-5824.72,10317.7 -5799.74,10249.5 -5799.74,10158.2L-5799.74,9747.05C-5799.74,9747.05 -5555.4,9747.05 -5555.4,9747.05ZM-5555.4,9674.1L-5872.69,9674.1L-5872.69,10158.2C-5872.69,10227.4 -5889.02,10279.9 -5921.68,10315.7C-5954.35,10351.4 -5995.56,10369.3 -6045.33,10369.3C-6097.44,10369.3 -6139.43,10351.6 -6171.32,10316.3C-6203.2,10280.9 -6219.14,10229 -6219.14,10160.5L-6219.14,8842.38C-6219.14,8766.17 -6201.64,8711.73 -6166.65,8679.07C-6131.65,8646.41 -6076.05,8630.08 -5999.84,8630.08L-5555.4,8630.08C-5423.98,8630.08 -5322.88,8640.19 -5252.11,8660.41C-5182.12,8679.85 -5121.66,8712.12 -5070.72,8757.23C-5019.78,8802.33 -4981.09,8857.55 -4954.65,8922.87C-4928.21,8988.19 -4914.99,9061.68 -4914.99,9143.34C-4914.99,9317.54 -4968.65,9449.55 -5075.97,9539.37C-5183.29,9629.19 -5343.1,9674.1 -5555.4,9674.1ZM-5639.39,8890.21L-5872.69,8890.21L-5872.69,9412.8L-5639.39,9412.8C-5557.73,9412.8 -5489.49,9404.25 -5434.67,9387.14C-5379.84,9370.03 -5338.04,9342.03 -5309.27,9303.15C-5280.49,9264.27 -5266.11,9213.33 -5266.11,9150.34C-5266.11,9074.91 -5288.27,9013.47 -5332.6,8966.03C-5382.37,8915.48 -5484.63,8890.21 -5639.39,8890.21ZM-5639.39,8963.16C-5569.05,8963.16 -5510.61,8968.5 -5464.13,8979.98C-5429.32,8988.59 -5402.4,8999.52 -5385.22,9016.58C-5353.47,9050.98 -5339.06,9095.91 -5339.06,9150.34C-5339.06,9195.23 -5347.4,9232.05 -5367.91,9259.76C-5388.05,9286.98 -5418.02,9305.52 -5456.4,9317.5C-5505.39,9332.79 -5566.43,9339.85 -5639.39,9339.85C-5639.39,9339.85 -5799.74,9339.85 -5799.74,9339.85C-5799.74,9339.85 -5799.74,9090.48 -5799.74,8963.16C-5799.74,8963.16 -5639.39,8963.16 -5639.39,8963.16Z"/>
                <path d="M-3498.86,8970.16C-3421.01,8970.16 -3364.43,8948.87 -3326.6,8914.34C-3284.78,8876.16 -3262.59,8826.09 -3262.59,8763.06C-3262.59,8701.01 -3284.63,8651.27 -3326.6,8612.95C-3364.43,8578.41 -3421.01,8557.13 -3498.86,8557.13C-3498.86,8557.13 -4413.39,8557.13 -4413.39,8557.13C-4474.77,8557.13 -4524.98,8567.28 -4564.44,8585.3C-4612.14,8607.09 -4647.2,8641.8 -4669.58,8689.5C-4688.14,8729.06 -4698.65,8779.87 -4698.65,8842.38L-4698.65,10127.9C-4698.65,10226.9 -4671.83,10297 -4628.01,10341.3C-4584.08,10385.7 -4513.65,10413.1 -4413.39,10413.1L-3472.03,10413.1C-3395.29,10413.1 -3338.62,10391.7 -3299.7,10356.1C-3256.91,10316.9 -3234.6,10266.4 -3234.6,10203.7C-3234.6,10139.1 -3257.21,10087.9 -3299.7,10049C-3338.62,10013.4 -3395.29,9991.93 -3472.03,9991.93L-4206.3,9991.93C-4206.3,9991.93 -4206.3,9651.4 -4206.3,9651.4C-4206.3,9651.4 -3560.68,9651.4 -3560.68,9651.4C-3483.69,9651.4 -3428.14,9629.62 -3391.33,9594.47C-3351.3,9556.27 -3330.25,9507.27 -3330.25,9446.63C-3330.25,9385.2 -3352.01,9336.25 -3393.17,9298.78C-3430.29,9264.98 -3485.32,9244.2 -3560.68,9244.2C-3560.68,9244.2 -4023.55,9244.2 -4206.3,9244.2C-4206.3,9244.2 -4206.3,9071.93 -4206.3,8970.16C-4012.38,8970.16 -3498.86,8970.16 -3498.86,8970.16ZM-3498.86,8897.21L-4279.25,8897.21L-4279.25,9317.15L-3560.68,9317.15C-3507.8,9317.15 -3468.33,9329.01 -3442.28,9352.73C-3416.23,9376.45 -3403.2,9407.75 -3403.2,9446.63C-3403.2,9485.51 -3416.03,9517.2 -3441.7,9541.7C-3467.36,9566.2 -3507.02,9578.44 -3560.68,9578.44L-4279.25,9578.44L-4279.25,10064.9L-3472.03,10064.9C-3417.59,10064.9 -3376.57,10077.5 -3348.96,10102.8C-3321.35,10128.1 -3307.55,10161.7 -3307.55,10203.7C-3307.55,10244.1 -3321.35,10277 -3348.96,10302.3C-3376.57,10327.5 -3417.59,10340.2 -3472.03,10340.2L-4413.39,10340.2C-4488.83,10340.2 -4543.07,10323.5 -4576.12,10290C-4609.17,10256.6 -4625.7,10202.5 -4625.7,10127.9L-4625.7,8842.38C-4625.7,8792.61 -4618.31,8751.98 -4603.53,8720.48C-4588.76,8688.99 -4565.62,8666.05 -4534.13,8651.66C-4502.63,8637.27 -4462.39,8630.08 -4413.39,8630.08L-3498.86,8630.08C-3443.64,8630.08 -3402.62,8642.33 -3375.79,8666.82C-3348.96,8691.32 -3335.54,8723.4 -3335.54,8763.06C-3335.54,8803.5 -3348.96,8835.97 -3375.79,8860.46C-3402.62,8884.96 -3443.64,8897.21 -3498.86,8897.21Z"/>
                <path d="M-12248.2,11868.5C-12248.2,11778.2 -12265.3,11702.1 -12297.5,11639.9C-12330.3,11576.3 -12376,11523.7 -12434.6,11482.1C-12488.6,11443.9 -12553.9,11411.1 -12630.8,11384.3C-12702.6,11359.3 -12782.8,11336.4 -12871.3,11315.7C-12938.2,11298.8 -12986.2,11285.9 -13015.3,11277.2C-13040.4,11269.5 -13065.2,11259 -13089.8,11245.5C-13108.9,11235.1 -13124.3,11223 -13135.2,11208.5C-13142.6,11198.6 -13145.6,11186.7 -13145.6,11173.1C-13145.6,11146.3 -13129.3,11125.1 -13102.7,11106C-13064.6,11078.7 -13014.1,11067 -12952,11067C-12887.9,11067 -12840.2,11074.6 -12811.3,11098.6C-12779.6,11124.9 -12753.1,11162 -12730.4,11209C-12730,11209.9 -12729.5,11210.8 -12729.1,11211.7C-12702.9,11260.6 -12677.8,11295.3 -12655.4,11316.8C-12625.3,11345.8 -12582.3,11363.7 -12524.2,11363.7C-12463.5,11363.7 -12412.8,11340.8 -12372.1,11294.8C-12333.5,11251 -12314.9,11201.7 -12314.9,11147.1C-12314.9,11096.4 -12327.4,11044.3 -12353.6,10991C-12378.3,10940.7 -12417,10892.2 -12470.6,10846.5C-12522.1,10802.5 -12586.6,10766.8 -12664.7,10740.2C-12739.6,10714.7 -12828.4,10701.5 -12931.2,10701.5C-13059,10701.5 -13170.1,10721.2 -13264.6,10759.4C-13365.7,10800.2 -13442.4,10859.4 -13495.8,10935.5C-13550.2,11013 -13577.8,11101.5 -13577.8,11201.2C-13577.8,11306.7 -13550.5,11394.5 -13498.6,11465.5C-13448.3,11534.4 -13380.4,11589.2 -13294.6,11629.1C-13216.9,11665.3 -13120.4,11697.1 -13005.1,11724.1C-13005,11724.1 -13004.9,11724.1 -13004.7,11724.2C-12925.9,11742.2 -12862.9,11759.2 -12815.8,11775.2C-12778.7,11787.8 -12748.1,11805.6 -12724.7,11829.5C-12706.7,11847.9 -12699.2,11872.3 -12699.2,11901.8C-12699.2,11942.7 -12719.1,11975.9 -12755.7,12003.2C-12801.6,12037.4 -12861.9,12052.7 -12935.4,12052.7C-12988.1,12052.7 -13030.9,12045.8 -13063.2,12029.1C-13092.6,12013.9 -13115.8,11995.1 -13132,11971.7C-13151.8,11943.1 -13170,11907.3 -13187.1,11864.6C-13207.9,11811.5 -13234,11772.2 -13263.3,11745.2C-13299.4,11711.9 -13343.3,11694.6 -13395.5,11694.6C-13457.1,11694.6 -13507.4,11715.9 -13547.2,11756.7C-13587,11797.6 -13606.9,11846.6 -13606.9,11903.9C-13606.9,11981 -13582.3,12060.7 -13530.5,12142.4C-13480.8,12220.6 -13416.3,12283.2 -13336.8,12330.1C-13336.7,12330.1 -13336.5,12330.2 -13336.4,12330.3C-13228.8,12392.9 -13092.6,12425.6 -12927.1,12425.6C-12789.7,12425.6 -12671.2,12402.1 -12571,12356.6C-12465.5,12308.6 -12386,12241.6 -12331.2,12156.9C-12276.1,12071.6 -12248.2,11975.6 -12248.2,11868.5ZM-12321.2,11868.5C-12321.2,11960.8 -12345,12043.8 -12392.5,12117.3C-12440,12190.9 -12509.6,12248.5 -12601.2,12290.1C-12692.8,12331.8 -12801.4,12352.6 -12927.1,12352.6C-13077.7,12352.6 -13201.9,12324.1 -13299.7,12267.2C-13369.1,12226.3 -13425.5,12171.6 -13468.9,12103.3C-13512.3,12034.9 -13534,11968.5 -13534,11903.9C-13534,11866.4 -13521,11834.4 -13494.9,11807.6C-13468.9,11780.9 -13435.8,11767.6 -13395.5,11767.6C-13362.9,11767.6 -13335.3,11778 -13312.8,11798.8C-13290.2,11819.6 -13270.9,11850.5 -13255,11891.4C-13235.5,11940 -13214.6,11980.6 -13192,12013.2C-13169.4,12045.9 -13137.7,12072.7 -13096.7,12093.9C-13055.8,12115.1 -13002,12125.7 -12935.4,12125.7C-12843.8,12125.7 -12769.3,12104.3 -12712.1,12061.6C-12654.8,12019 -12626.2,11965.7 -12626.2,11901.8C-12626.2,11851.2 -12641.6,11810.1 -12672.5,11778.5C-12703.4,11746.9 -12743.3,11722.8 -12792.2,11706.1C-12841.2,11689.5 -12906.6,11671.8 -12988.5,11653C-13098.1,11627.4 -13189.9,11597.3 -13263.8,11563C-13337.7,11528.6 -13396.4,11481.8 -13439.8,11422.5C-13483.1,11363.1 -13504.8,11289.4 -13504.8,11201.2C-13504.8,11117.3 -13481.9,11042.7 -13436.1,10977.4C-13390.3,10912.2 -13324,10862 -13237.3,10827C-13150.5,10791.9 -13048.5,10774.4 -12931.2,10774.4C-12837.5,10774.4 -12756.5,10786 -12688.1,10809.3C-12619.8,10832.5 -12563,10863.4 -12517.9,10901.9C-12472.8,10940.5 -12439.9,10980.9 -12419,11023.2C-12398.2,11065.6 -12387.8,11106.9 -12387.8,11147.1C-12387.8,11183.9 -12400.8,11217 -12426.8,11246.5C-12452.9,11276 -12485.3,11290.8 -12524.2,11290.8C-12559.6,11290.8 -12586.5,11281.9 -12604.9,11264.2C-12623.3,11246.5 -12643.2,11217.5 -12664.7,11177.3C-12692.5,11119.7 -12725.8,11074.8 -12764.7,11042.5C-12803.5,11010.2 -12866,10994.1 -12952,10994.1C-13031.9,10994.1 -13096.2,11011.6 -13145.1,11046.6C-13194.1,11081.7 -13218.5,11123.9 -13218.5,11173.1C-13218.5,11203.7 -13210.2,11230 -13193.6,11252.2C-13176.9,11274.5 -13154,11293.5 -13124.8,11309.5C-13095.7,11325.5 -13066.2,11338 -13036.4,11347C-13006.5,11356 -12957.2,11369.2 -12888.5,11386.5C-12802.5,11406.7 -12724.6,11428.9 -12654.8,11453.2C-12585.1,11477.5 -12525.7,11507 -12476.8,11541.7C-12427.9,11576.4 -12389.7,11620.2 -12362.3,11673.3C-12334.9,11726.4 -12321.2,11791.5 -12321.2,11868.5Z"/>
                <path d="M-11136.8,11111.8C-11064.9,11111.8 -11012.7,11091.8 -10977.8,11059.9C-10938.8,11024.4 -10918.1,10977.8 -10918.1,10919.1C-10918.1,10861.3 -10938.7,10815.1 -10977.8,10779.4C-11012.7,10747.5 -11064.9,10727.5 -11136.8,10727.5C-11136.8,10727.5 -11952.9,10727.5 -11952.9,10727.5C-12009,10727.5 -12054.9,10736.9 -12091,10753.4C-12135.3,10773.6 -12167.9,10805.8 -12188.7,10850.1C-12205.6,10886.3 -12215.3,10932.8 -12215.3,10989.9C-12215.3,10989.9 -12215.3,12137.1 -12215.3,12137.1C-12215.3,12228.1 -12190.3,12292.4 -12150,12333.1C-12109.7,12373.9 -12045.1,12399.5 -11952.9,12399.5L-11112.8,12399.5C-11041.9,12399.5 -10989.7,12379.5 -10953.7,12346.6C-10913.9,12310.1 -10893.1,12263.1 -10893.1,12204.8C-10893.1,12144.7 -10914.2,12097.1 -10953.7,12060.9C-10989.7,12028 -11041.9,12007.9 -11112.8,12007.9L-11760.3,12007.9C-11760.3,12007.9 -11760.3,11825.3 -11760.3,11719.7C-11760.3,11719.7 -11191.9,11719.7 -11191.9,11719.7C-11120.7,11719.7 -11069.5,11699.3 -11035.4,11666.8C-10998.1,11631.2 -10978.5,11585.6 -10978.5,11529.2C-10978.5,11471.9 -10998.8,11426.3 -11037.2,11391.4C-11071.5,11360.2 -11122.3,11340.7 -11191.9,11340.7L-11760.3,11340.7C-11760.3,11340.7 -11760.3,11111.8 -11760.3,11111.8C-11760.3,11111.8 -11136.8,11111.8 -11136.8,11111.8ZM-11136.8,11038.8L-11833.2,11038.8L-11833.2,11413.6L-11191.9,11413.6C-11144.8,11413.6 -11109.5,11424.2 -11086.3,11445.4C-11063,11466.5 -11051.4,11494.5 -11051.4,11529.2C-11051.4,11563.9 -11062.9,11592.1 -11085.8,11614C-11108.7,11635.9 -11144.1,11646.8 -11191.9,11646.8L-11833.2,11646.8L-11833.2,12080.9L-11112.8,12080.9C-11064.3,12080.9 -11027.6,12092.2 -11003,12114.7C-10978.4,12137.3 -10966,12167.3 -10966,12204.8C-10966,12240.9 -10978.4,12270.2 -11003,12292.7C-11027.6,12315.3 -11064.3,12326.6 -11112.8,12326.6L-11952.9,12326.6C-12020.3,12326.6 -12068.7,12311.7 -12098.2,12281.8C-12127.6,12252 -12142.4,12203.7 -12142.4,12137.1L-12142.4,10989.9C-12142.4,10945.5 -12135.8,10909.2 -12122.6,10881.1C-12109.4,10853 -12088.8,10832.5 -12060.7,10819.7C-12032.6,10806.9 -11996.7,10800.4 -11952.9,10800.4L-11136.8,10800.4C-11087.5,10800.4 -11050.9,10811.4 -11026.9,10833.2C-11003,10855.1 -10991,10883.7 -10991,10919.1C-10991,10955.2 -11003,10984.2 -11026.9,11006.1C-11050.9,11027.9 -11087.5,11038.8 -11136.8,11038.8Z"/>
                <path d="M-9571.27,11868.5C-9571.27,11778.2 -9588.38,11702.1 -9620.52,11639.9C-9653.36,11576.3 -9699.06,11523.7 -9757.66,11482.1C-9811.62,11443.9 -9876.94,11411.1 -9953.88,11384.3C-10025.7,11359.3 -10105.8,11336.4 -10194.3,11315.7C-10261.2,11298.8 -10309.2,11285.9 -10338.3,11277.2C-10363.4,11269.5 -10388.3,11259 -10412.9,11245.5C-10431.9,11235.1 -10447.3,11223 -10458.2,11208.5C-10465.6,11198.6 -10468.6,11186.7 -10468.6,11173.1C-10468.6,11146.3 -10452.4,11125.1 -10425.7,11106C-10387.7,11078.7 -10337.1,11067 -10275.1,11067C-10210.9,11067 -10163.3,11074.6 -10134.3,11098.6C-10102.6,11124.9 -10076.1,11162 -10053.5,11209C-10053,11209.9 -10052.6,11210.8 -10052.1,11211.7C-10025.9,11260.6 -10000.8,11295.3 -9978.49,11316.8C-9948.3,11345.8 -9905.32,11363.7 -9847.22,11363.7C-9786.54,11363.7 -9735.82,11340.8 -9695.19,11294.8C-9656.59,11251 -9637.9,11201.7 -9637.9,11147.1C-9637.9,11096.4 -9650.41,11044.3 -9676.62,10991C-9701.36,10940.7 -9740,10892.2 -9793.61,10846.5C-9845.11,10802.5 -9909.64,10766.8 -9987.69,10740.2C-10062.7,10714.7 -10151.5,10701.5 -10254.3,10701.5C-10382.1,10701.5 -10493.1,10721.2 -10587.6,10759.4C-10688.8,10800.2 -10765.5,10859.4 -10818.9,10935.5C-10873.3,11013 -10900.8,11101.5 -10900.8,11201.2C-10900.8,11306.7 -10873.6,11394.5 -10821.7,11465.5C-10771.3,11534.4 -10703.5,11589.2 -10617.6,11629.1C-10539.9,11665.3 -10443.5,11697.1 -10328.1,11724.1C-10328,11724.1 -10327.9,11724.1 -10327.8,11724.2C-10248.9,11742.2 -10185.9,11759.2 -10138.8,11775.2C-10101.7,11787.8 -10071.1,11805.6 -10047.7,11829.5C-10029.7,11847.9 -10022.2,11872.3 -10022.2,11901.8C-10022.2,11942.7 -10042.1,11975.9 -10078.7,12003.2C-10124.7,12037.4 -10184.9,12052.7 -10258.4,12052.7C-10311.1,12052.7 -10353.9,12045.8 -10386.3,12029.1C-10415.7,12013.9 -10438.9,11995.1 -10455,11971.7C-10474.9,11943.1 -10493.1,11907.3 -10510.2,11864.6C-10530.9,11811.5 -10557,11772.2 -10586.3,11745.2C-10622.4,11711.9 -10666.3,11694.6 -10718.6,11694.6C-10780.1,11694.6 -10830.4,11715.9 -10870.2,11756.7C-10910,11797.6 -10930,11846.6 -10930,11903.9C-10930,11981 -10905.3,12060.7 -10853.5,12142.4C-10803.9,12220.6 -10739.3,12283.2 -10659.9,12330.1C-10659.7,12330.1 -10659.6,12330.2 -10659.5,12330.3C-10551.9,12392.9 -10415.6,12425.6 -10250.1,12425.6C-10112.8,12425.6 -9994.21,12402.1 -9894.07,12356.6C-9788.59,12308.6 -9709.01,12241.6 -9654.26,12156.9C-9599.14,12071.6 -9571.27,11975.6 -9571.27,11868.5ZM-9644.23,11868.5C-9644.23,11960.8 -9668,12043.8 -9715.53,12117.3C-9763.08,12190.9 -9832.65,12248.5 -9924.26,12290.1C-10015.9,12331.8 -10124.5,12352.6 -10250.1,12352.6C-10400.7,12352.6 -10524.9,12324.1 -10622.8,12267.2C-10692.2,12226.3 -10748.6,12171.6 -10791.9,12103.3C-10835.3,12034.9 -10857,11968.5 -10857,11903.9C-10857,11866.4 -10844,11834.4 -10818,11807.6C-10791.9,11780.9 -10758.8,11767.6 -10718.6,11767.6C-10685.9,11767.6 -10658.3,11778 -10635.8,11798.8C-10613.2,11819.6 -10594,11850.5 -10578,11891.4C-10558.6,11940 -10537.6,11980.6 -10515,12013.2C-10492.5,12045.9 -10460.7,12072.7 -10419.8,12093.9C-10378.8,12115.1 -10325.1,12125.7 -10258.4,12125.7C-10166.8,12125.7 -10092.4,12104.3 -10035.1,12061.6C-9977.87,12019 -9949.24,11965.7 -9949.24,11901.8C-9949.24,11851.2 -9964.68,11810.1 -9995.57,11778.5C-10026.5,11746.9 -10066.4,11722.8 -10115.3,11706.1C-10164.2,11689.5 -10229.6,11671.8 -10311.5,11653C-10421.2,11627.4 -10513,11597.3 -10586.9,11563C-10660.8,11528.6 -10719.4,11481.8 -10762.8,11422.5C-10806.2,11363.1 -10827.9,11289.4 -10827.9,11201.2C-10827.9,11117.3 -10805,11042.7 -10759.2,10977.4C-10713.3,10912.2 -10647.1,10862 -10560.3,10827C-10473.6,10791.9 -10371.5,10774.4 -10254.3,10774.4C-10160.6,10774.4 -10079.5,10786 -10011.2,10809.3C-9942.82,10832.5 -9886.09,10863.4 -9840.98,10901.9C-9795.87,10940.5 -9762.9,10980.9 -9742.08,11023.2C-9721.26,11065.6 -9710.85,11106.9 -9710.85,11147.1C-9710.85,11183.9 -9723.86,11217 -9749.89,11246.5C-9775.91,11276 -9808.36,11290.8 -9847.22,11290.8C-9882.62,11290.8 -9909.51,11281.9 -9927.9,11264.2C-9946.29,11246.5 -9966.25,11217.5 -9987.76,11177.3C-10015.5,11119.7 -10048.8,11074.8 -10087.7,11042.5C-10126.6,11010.2 -10189,10994.1 -10275.1,10994.1C-10354.9,10994.1 -10419.3,11011.6 -10468.2,11046.6C-10517.1,11081.7 -10541.6,11123.9 -10541.6,11173.1C-10541.6,11203.7 -10533.3,11230 -10516.6,11252.2C-10499.9,11274.5 -10477,11293.5 -10447.9,11309.5C-10418.7,11325.5 -10389.2,11338 -10359.4,11347C-10329.6,11356 -10280.3,11369.2 -10211.6,11386.5C-10125.5,11406.7 -10047.6,11428.9 -9977.87,11453.2C-9908.12,11477.5 -9848.78,11507 -9799.86,11541.7C-9750.93,11576.4 -9712.76,11620.2 -9685.35,11673.3C-9657.93,11726.4 -9644.23,11791.5 -9644.23,11868.5Z"/>
                <path d="M-8232.8,11868.5C-8232.8,11778.2 -8249.9,11702.1 -8282.05,11639.9C-8314.88,11576.3 -8360.58,11523.7 -8419.18,11482.1C-8473.15,11443.9 -8538.46,11411.1 -8615.4,11384.3C-8687.18,11359.3 -8767.33,11336.4 -8855.86,11315.7C-8922.73,11298.8 -8970.72,11285.9 -8999.81,11277.2C-9024.96,11269.5 -9049.8,11259 -9074.37,11245.5C-9093.46,11235.1 -9108.85,11223 -9119.76,11208.5C-9127.15,11198.6 -9130.15,11186.7 -9130.15,11173.1C-9130.15,11146.3 -9113.9,11125.1 -9087.23,11106C-9049.19,11078.7 -8998.64,11067 -8936.6,11067C-8872.45,11067 -8824.8,11074.6 -8795.82,11098.6C-8764.14,11124.9 -8737.63,11162 -8715,11209C-8714.56,11209.9 -8714.1,11210.8 -8713.62,11211.7C-8687.46,11260.6 -8662.37,11295.3 -8640.01,11316.8C-8609.82,11345.8 -8566.84,11363.7 -8508.74,11363.7C-8448.07,11363.7 -8397.34,11340.8 -8356.71,11294.8C-8318.11,11251 -8299.42,11201.7 -8299.42,11147.1C-8299.42,11096.4 -8311.93,11044.3 -8338.14,10991C-8362.88,10940.7 -8401.52,10892.2 -8455.13,10846.5C-8506.63,10802.5 -8571.16,10766.8 -8649.21,10740.2C-8724.2,10714.7 -8813.01,10701.5 -8915.78,10701.5C-9043.58,10701.5 -9154.64,10721.2 -9249.17,10759.4C-9350.3,10800.2 -9426.98,10859.4 -9480.38,10935.5C-9534.78,11013 -9562.33,11101.5 -9562.33,11201.2C-9562.33,11306.7 -9535.1,11394.5 -9483.21,11465.5C-9432.82,11534.4 -9365,11589.2 -9279.13,11629.1C-9201.41,11665.3 -9104.98,11697.1 -8989.67,11724.1C-8989.55,11724.1 -8989.43,11724.1 -8989.31,11724.2C-8910.45,11742.2 -8847.43,11759.2 -8800.32,11775.2C-8763.23,11787.8 -8732.65,11805.6 -8709.24,11829.5C-8691.26,11847.9 -8683.72,11872.3 -8683.72,11901.8C-8683.72,11942.7 -8703.63,11975.9 -8740.25,12003.2C-8786.19,12037.4 -8846.43,12052.7 -8919.94,12052.7C-8972.62,12052.7 -9015.43,12045.8 -9047.8,12029.1C-9077.17,12013.9 -9100.37,11995.1 -9116.55,11971.7C-9136.38,11943.1 -9154.6,11907.3 -9171.69,11864.6C-9192.43,11811.5 -9218.56,11772.2 -9247.83,11745.2C-9283.93,11711.9 -9327.86,11694.6 -9380.07,11694.6C-9441.62,11694.6 -9491.95,11715.9 -9531.75,11756.7C-9571.54,11797.6 -9591.48,11846.6 -9591.48,11903.9C-9591.48,11981 -9566.85,12060.7 -9515.06,12142.4C-9465.4,12220.6 -9400.83,12283.2 -9321.37,12330.1C-9321.24,12330.1 -9321.11,12330.2 -9320.98,12330.3C-9213.4,12392.9 -9077.17,12425.6 -8911.62,12425.6C-8774.31,12425.6 -8655.73,12402.1 -8555.59,12356.6C-8450.11,12308.6 -8370.52,12241.6 -8315.78,12156.9C-8260.66,12071.6 -8232.8,11975.6 -8232.8,11868.5ZM-8305.75,11868.5C-8305.75,11960.8 -8329.52,12043.8 -8377.06,12117.3C-8424.59,12190.9 -8494.17,12248.5 -8585.78,12290.1C-8677.39,12331.8 -8786,12352.6 -8911.62,12352.6C-9062.22,12352.6 -9186.44,12324.1 -9284.3,12267.2C-9353.7,12226.3 -9410.09,12171.6 -9453.47,12103.3C-9496.84,12034.9 -9518.53,11968.5 -9518.53,11903.9C-9518.53,11866.4 -9505.52,11834.4 -9479.49,11807.6C-9453.47,11780.9 -9420.33,11767.6 -9380.07,11767.6C-9347.46,11767.6 -9319.87,11778 -9297.31,11798.8C-9274.76,11819.6 -9255.5,11850.5 -9239.54,11891.4C-9220.1,11940 -9199.11,11980.6 -9176.56,12013.2C-9154,12045.9 -9122.25,12072.7 -9081.3,12093.9C-9040.36,12115.1 -8986.57,12125.7 -8919.94,12125.7C-8828.34,12125.7 -8753.9,12104.3 -8696.65,12061.6C-8639.39,12019 -8610.76,11965.7 -8610.76,11901.8C-8610.76,11851.2 -8626.2,11810.1 -8657.09,11778.5C-8687.97,11746.9 -8727.88,11722.8 -8776.81,11706.1C-8825.73,11689.5 -8891.14,11671.8 -8973.04,11653C-9082.69,11627.4 -9174.47,11597.3 -9248.39,11563C-9322.3,11528.6 -9380.94,11481.8 -9424.32,11422.5C-9467.69,11363.1 -9489.38,11289.4 -9489.38,11201.2C-9489.38,11117.3 -9466.48,11042.7 -9420.67,10977.4C-9374.87,10912.2 -9308.59,10862 -9221.84,10827C-9135.09,10791.9 -9033.07,10774.4 -8915.78,10774.4C-8822.09,10774.4 -8741.06,10786 -8672.7,10809.3C-8604.34,10832.5 -8547.61,10863.4 -8502.5,10901.9C-8457.39,10940.5 -8424.42,10980.9 -8403.6,11023.2C-8382.78,11065.6 -8372.37,11106.9 -8372.37,11147.1C-8372.37,11183.9 -8385.38,11217 -8411.41,11246.5C-8437.43,11276 -8469.88,11290.8 -8508.74,11290.8C-8544.14,11290.8 -8571.03,11281.9 -8589.42,11264.2C-8607.81,11246.5 -8627.77,11217.5 -8649.28,11177.3C-8677.04,11119.7 -8710.35,11074.8 -8749.22,11042.5C-8788.08,11010.2 -8850.54,10994.1 -8936.6,10994.1C-9016.41,10994.1 -9080.78,11011.6 -9129.71,11046.6C-9178.64,11081.7 -9203.1,11123.9 -9203.1,11173.1C-9203.1,11203.7 -9194.77,11230 -9178.12,11252.2C-9161.46,11274.5 -9138.56,11293.5 -9109.41,11309.5C-9080.26,11325.5 -9050.77,11338 -9020.92,11347C-8991.08,11356 -8941.81,11369.2 -8873.1,11386.5C-8787.04,11406.7 -8709.14,11428.9 -8639.39,11453.2C-8569.64,11477.5 -8510.31,11507 -8461.38,11541.7C-8412.45,11576.4 -8374.28,11620.2 -8346.87,11673.3C-8319.45,11726.4 -8305.75,11791.5 -8305.75,11868.5Z"/>
                <path d="M-8187.42,12164.2C-8187.42,12248.9 -8164.24,12311.6 -8125.16,12354.4C-8082.17,12401.5 -8027.73,12425.6 -7961.44,12425.6C-7892.68,12425.6 -7837.45,12401.4 -7794.86,12355.2C-7755.75,12312.8 -7732.33,12249.9 -7732.33,12164.2L-7732.33,10961.8C-7732.33,10875.8 -7755.92,10813 -7795.14,10771C-7837.66,10725.4 -7892.78,10701.5 -7961.44,10701.5C-8028.73,10701.5 -8083.26,10725.6 -8125.71,10772.1C-8164.35,10814.5 -8187.42,10877 -8187.42,10961.8C-8187.42,10961.8 -8187.42,12164.2 -8187.42,12164.2ZM-8114.47,12164.2L-8114.47,10961.8C-8114.47,10899.3 -8100.24,10852.5 -8071.78,10821.3C-8043.33,10790 -8006.55,10774.4 -7961.44,10774.4C-7914.94,10774.4 -7877.29,10789.9 -7848.49,10820.7C-7819.69,10851.6 -7805.28,10898.7 -7805.28,10961.8L-7805.28,12164.2C-7805.28,12227.3 -7819.69,12274.5 -7848.49,12305.8C-7877.29,12337 -7914.94,12352.6 -7961.44,12352.6C-8005.85,12352.6 -8042.46,12336.8 -8071.26,12305.2C-8100.07,12273.7 -8114.47,12226.6 -8114.47,12164.2Z"/>
                <path d="M-6871.76,10701.5C-6998.45,10701.5 -7111.49,10721.7 -7211.03,10761.3C-7313.08,10801.9 -7399.56,10860.6 -7470.69,10937.1C-7541.21,11013 -7595.32,11104.8 -7632.5,11212.9C-7668.64,11318 -7686.95,11433.4 -7686.95,11559.3C-7686.95,11682 -7669.49,11796.1 -7634.93,11901.6C-7599.3,12010.4 -7546.37,12103.4 -7476.65,12180.7C-7406.34,12258.8 -7318.8,12319.5 -7213.71,12362.4C-7111.19,12404.2 -6995.17,12425.6 -6865.51,12425.6C-6735.17,12425.6 -6619.61,12404.7 -6518.65,12364.1C-6414.98,12322.3 -6327.66,12261.8 -6256.48,12182.9C-6186,12104.7 -6132.97,12012.5 -6097.73,11906C-6063.53,11802.7 -6046.15,11687.8 -6046.15,11561.4C-6046.15,11389.4 -6078.28,11239.8 -6141.11,11112.3C-6206.07,10980.4 -6301.83,10878.8 -6428.28,10807.2C-6551.81,10737.3 -6699.49,10701.5 -6871.76,10701.5ZM-6871.76,10774.4C-6713.53,10774.4 -6577.67,10806.5 -6464.2,10870.7C-6350.73,10934.9 -6264.85,11026.2 -6206.55,11144.5C-6148.25,11262.8 -6119.11,11401.8 -6119.11,11561.4C-6119.11,11679.4 -6135.07,11786.6 -6166.99,11883.1C-6198.92,11979.6 -6246.8,12063.2 -6310.65,12134C-6374.5,12204.8 -6452.92,12258.9 -6545.92,12296.4C-6638.92,12333.9 -6745.45,12352.6 -6865.51,12352.6C-6984.88,12352.6 -7091.76,12333.3 -7186.15,12294.8C-7280.53,12256.3 -7359.3,12202 -7422.46,12131.9C-7485.61,12061.8 -7533.32,11977.5 -7565.6,11878.9C-7597.87,11780.4 -7614,11673.9 -7614,11559.3C-7614,11442.1 -7597.17,11334.5 -7563.51,11236.6C-7529.86,11138.8 -7481.1,11055.5 -7417.25,10986.8C-7353.4,10918.1 -7275.67,10865.5 -7184.06,10829.1C-7092.45,10792.6 -6988.35,10774.4 -6871.76,10774.4ZM-6432.45,11559.3C-6432.45,11447.6 -6450.49,11350.8 -6486.58,11268.9C-6522.67,11187 -6574.2,11125.1 -6641.17,11083.1C-6708.15,11041.1 -6785.01,11020.1 -6871.76,11020.1C-6933.53,11020.1 -6990.61,11031.7 -7043.01,11055C-7095.4,11078.2 -7140.52,11112.1 -7178.34,11156.5C-7216.16,11200.9 -7246.01,11257.6 -7267.87,11326.7C-7289.73,11395.7 -7300.66,11473.3 -7300.66,11559.3C-7300.66,11646.1 -7289.73,11724.5 -7267.87,11794.6C-7246.01,11864.7 -7215.12,11922.8 -7175.22,11969C-7135.31,12015.1 -7089.51,12049.7 -7037.8,12072.6C-6986.1,12095.5 -6929.36,12106.9 -6867.6,12106.9C-6788.48,12106.9 -6715.78,12087.1 -6649.5,12047.6C-6583.23,12008 -6530.48,11947 -6491.27,11864.4C-6452.06,11781.8 -6432.45,11680.1 -6432.45,11559.3ZM-6505.4,11559.3C-6505.4,11667.6 -6522,11759 -6557.17,11833.1C-6589.52,11901.2 -6632.21,11952.3 -6686.89,11984.9C-6741.8,12017.7 -6802.05,12034 -6867.6,12034C-6918.62,12034 -6965.54,12024.8 -7008.26,12005.9C-7050.38,11987.2 -7087.53,11958.9 -7120.03,11921.3C-7153.93,11882.1 -7179.65,11832.4 -7198.22,11772.9C-7218.06,11709.3 -7227.71,11638.1 -7227.71,11559.3C-7227.71,11481.5 -7218.11,11411.2 -7198.32,11348.7C-7179.74,11290 -7154.94,11241.5 -7122.8,11203.8C-7092.22,11167.9 -7055.78,11140.5 -7013.42,11121.7C-6970.09,11102.4 -6922.84,11093.1 -6871.76,11093.1C-6799.64,11093.1 -6735.6,11110 -6679.93,11144.9C-6624.81,11179.4 -6583.04,11230.9 -6553.34,11298.3C-6520.92,11371.9 -6505.4,11459 -6505.4,11559.3Z"/>
                <path d="M-5474.09,10920.1C-5490.71,10893.8 -5506.81,10868.5 -5522.4,10844.3C-5541.09,10815.2 -5559.54,10791.7 -5577.4,10773.4C-5598.61,10751.7 -5623.24,10734.4 -5651.35,10721.6C-5679.57,10708.7 -5713.33,10701.5 -5752.93,10701.5C-5802.51,10701.5 -5848.72,10715.2 -5891.49,10742.9C-5935.02,10771.1 -5965.82,10807.7 -5984.62,10852.2C-5984.88,10852.8 -5985.13,10853.5 -5985.37,10854.1C-5999,10889 -6007.02,10936.9 -6007.02,10998.2L-6007.02,12175.6C-6007.02,12254.7 -5985.64,12313.9 -5949.45,12355.3C-5909.18,12401.4 -5856.14,12425.6 -5789.37,12425.6C-5724.96,12425.6 -5672.41,12402.3 -5631.23,12356.8C-5593.9,12315.7 -5571.72,12256 -5571.72,12175.6L-5571.72,11526.8C-5400.45,11789.4 -5125.93,12210.3 -5125.93,12210.3C-5125.62,12210.8 -5125.31,12211.2 -5124.99,12211.7C-5108.04,12236.4 -5091.1,12260.6 -5074.16,12284.2C-5054.22,12312 -5032.57,12336.3 -5009.31,12357.1C-4982.48,12381 -4953.59,12398.3 -4922.93,12409.3C-4893.4,12419.9 -4860.23,12425.6 -4823.31,12425.6C-4742.23,12425.6 -4682.76,12397.8 -4642.22,12348.9C-4605.69,12304.9 -4583.79,12239.8 -4583.79,12151.7C-4583.79,12151.7 -4583.79,10951.4 -4583.79,10951.4C-4583.79,10870.6 -4605.08,10811.2 -4640.24,10770.8C-4679.52,10725.6 -4732.45,10701.5 -4800.4,10701.5C-4866.9,10701.5 -4919.14,10725.6 -4958.29,10771.1C-4992.9,10811.4 -5013.89,10870.8 -5013.89,10951.4C-5013.89,10951.4 -5013.89,11616.5 -5013.89,11616.5C-5013.89,11616.5 -5474.09,10920.1 -5474.09,10920.1L-5474.09,10920.1ZM-5535.36,10959.7L-4940.94,11859.2L-4940.94,10951.4C-4940.94,10892.4 -4928.28,10848.2 -4902.94,10818.7C-4877.61,10789.2 -4843.43,10774.4 -4800.4,10774.4C-4755.99,10774.4 -4720.94,10789.2 -4695.26,10818.7C-4669.58,10848.2 -4656.74,10892.4 -4656.74,10951.4L-4656.74,12151.7C-4656.74,12285.6 -4712.27,12352.6 -4823.31,12352.6C-4851.07,12352.6 -4876.05,12348.6 -4898.26,12340.6C-4920.47,12332.7 -4941.29,12320 -4960.72,12302.6C-4980.15,12285.3 -4998.2,12265 -5014.85,12241.7C-5031.51,12218.5 -5048.17,12194.7 -5064.82,12170.4L-5644.67,11281.4L-5644.67,12175.6C-5644.67,12233.9 -5658.2,12278 -5685.27,12307.8C-5712.33,12337.7 -5747.03,12352.6 -5789.37,12352.6C-5833.09,12352.6 -5868.14,12337.5 -5894.51,12307.3C-5920.89,12277.1 -5934.07,12233.2 -5934.07,12175.6L-5934.07,10998.2C-5934.07,10948.3 -5928.52,10909.1 -5917.41,10880.6C-5904.23,10849.4 -5882.37,10823.9 -5851.83,10804.1C-5821.29,10784.3 -5788.33,10774.4 -5752.93,10774.4C-5725.17,10774.4 -5701.4,10778.9 -5681.62,10788C-5661.85,10797 -5644.49,10809.1 -5629.57,10824.4C-5614.65,10839.7 -5599.38,10859.4 -5583.77,10883.7C-5568.15,10908 -5552.02,10933.4 -5535.36,10959.7Z"/>
                <path d="M-3169.32,11868.5C-3169.32,11778.2 -3186.43,11702.1 -3218.57,11639.9C-3251.4,11576.3 -3297.1,11523.7 -3355.7,11482.1C-3409.67,11443.9 -3474.99,11411.1 -3551.92,11384.3C-3623.71,11359.3 -3703.86,11336.4 -3792.39,11315.7C-3859.25,11298.8 -3907.24,11285.9 -3936.34,11277.2C-3961.49,11269.5 -3986.33,11259 -4010.89,11245.5C-4029.99,11235.1 -4045.37,11223 -4056.28,11208.5C-4063.68,11198.6 -4066.68,11186.7 -4066.68,11173.1C-4066.68,11146.3 -4050.43,11125.1 -4023.75,11106C-3985.72,11078.7 -3935.17,11067 -3873.13,11067C-3808.97,11067 -3761.32,11074.6 -3732.35,11098.6C-3700.67,11124.9 -3674.15,11162 -3651.52,11209C-3651.08,11209.9 -3650.62,11210.8 -3650.14,11211.7C-3623.99,11260.6 -3598.89,11295.3 -3576.53,11316.8C-3546.35,11345.8 -3503.36,11363.7 -3445.27,11363.7C-3384.59,11363.7 -3333.87,11340.8 -3293.23,11294.8C-3254.63,11251 -3235.95,11201.7 -3235.95,11147.1C-3235.95,11096.4 -3248.46,11044.3 -3274.66,10991C-3299.41,10940.7 -3338.04,10892.2 -3391.65,10846.5C-3443.16,10802.5 -3507.69,10766.8 -3585.74,10740.2C-3660.73,10714.7 -3749.53,10701.5 -3852.31,10701.5C-3980.11,10701.5 -4091.16,10721.2 -4185.69,10759.4C-4286.83,10800.2 -4363.5,10859.4 -4416.9,10935.5C-4471.31,11013 -4498.86,11101.5 -4498.86,11201.2C-4498.86,11306.7 -4471.63,11394.5 -4419.74,11465.5C-4369.35,11534.4 -4301.52,11589.2 -4215.66,11629.1C-4137.94,11665.3 -4041.5,11697.1 -3926.2,11724.1C-3926.08,11724.1 -3925.95,11724.1 -3925.83,11724.2C-3846.97,11742.2 -3783.96,11759.2 -3736.84,11775.2C-3699.75,11787.8 -3669.18,11805.6 -3645.77,11829.5C-3627.79,11847.9 -3620.24,11872.3 -3620.24,11901.8C-3620.24,11942.7 -3640.16,11975.9 -3676.77,12003.2C-3722.72,12037.4 -3782.96,12052.7 -3856.47,12052.7C-3909.14,12052.7 -3951.95,12045.8 -3984.33,12029.1C-4013.7,12013.9 -4036.9,11995.1 -4053.08,11971.7C-4072.9,11943.1 -4091.13,11907.3 -4108.21,11864.6C-4128.95,11811.5 -4155.09,11772.2 -4184.36,11745.2C-4220.46,11711.9 -4264.39,11694.6 -4316.6,11694.6C-4378.15,11694.6 -4428.48,11715.9 -4468.28,11756.7C-4508.06,11797.6 -4528.01,11846.6 -4528.01,11903.9C-4528.01,11981 -4503.38,12060.7 -4451.59,12142.4C-4401.93,12220.6 -4337.35,12283.2 -4257.9,12330.1C-4257.76,12330.1 -4257.63,12330.2 -4257.5,12330.3C-4149.93,12392.9 -4013.69,12425.6 -3848.14,12425.6C-3710.83,12425.6 -3592.25,12402.1 -3492.12,12356.6C-3386.63,12308.6 -3307.05,12241.6 -3252.31,12156.9C-3197.19,12071.6 -3169.32,11975.6 -3169.32,11868.5ZM-3242.27,11868.5C-3242.27,11960.8 -3266.04,12043.8 -3313.58,12117.3C-3361.12,12190.9 -3430.7,12248.5 -3522.3,12290.1C-3613.91,12331.8 -3722.53,12352.6 -3848.14,12352.6C-3998.74,12352.6 -4122.97,12324.1 -4220.83,12267.2C-4290.23,12226.3 -4346.61,12171.6 -4389.99,12103.3C-4433.37,12034.9 -4455.05,11968.5 -4455.05,11903.9C-4455.05,11866.4 -4442.04,11834.4 -4416.02,11807.6C-4389.99,11780.9 -4356.85,11767.6 -4316.6,11767.6C-4283.98,11767.6 -4256.39,11778 -4233.84,11798.8C-4211.28,11819.6 -4192.02,11850.5 -4176.06,11891.4C-4156.63,11940 -4135.64,11980.6 -4113.08,12013.2C-4090.53,12045.9 -4058.77,12072.7 -4017.83,12093.9C-3976.88,12115.1 -3923.1,12125.7 -3856.47,12125.7C-3764.86,12125.7 -3690.43,12104.3 -3633.17,12061.6C-3575.92,12019 -3547.29,11965.7 -3547.29,11901.8C-3547.29,11851.2 -3562.73,11810.1 -3593.61,11778.5C-3624.5,11746.9 -3664.4,11722.8 -3713.33,11706.1C-3762.26,11689.5 -3827.67,11671.8 -3909.56,11653C-4019.22,11627.4 -4111,11597.3 -4184.91,11563C-4258.82,11528.6 -4317.47,11481.8 -4360.84,11422.5C-4404.22,11363.1 -4425.91,11289.4 -4425.91,11201.2C-4425.91,11117.3 -4403,11042.7 -4357.2,10977.4C-4311.39,10912.2 -4245.12,10862 -4158.36,10827C-4071.61,10791.9 -3969.59,10774.4 -3852.31,10774.4C-3758.62,10774.4 -3677.59,10786 -3609.23,10809.3C-3540.87,10832.5 -3484.13,10863.4 -3439.02,10901.9C-3393.91,10940.5 -3360.95,10980.9 -3340.13,11023.2C-3319.31,11065.6 -3308.9,11106.9 -3308.9,11147.1C-3308.9,11183.9 -3321.91,11217 -3347.93,11246.5C-3373.96,11276 -3406.4,11290.8 -3445.27,11290.8C-3480.66,11290.8 -3507.56,11281.9 -3525.95,11264.2C-3544.34,11246.5 -3564.29,11217.5 -3585.81,11177.3C-3613.57,11119.7 -3646.88,11074.8 -3685.74,11042.5C-3724.61,11010.2 -3787.07,10994.1 -3873.13,10994.1C-3952.94,10994.1 -4017.31,11011.6 -4066.24,11046.6C-4115.16,11081.7 -4139.63,11123.9 -4139.63,11173.1C-4139.63,11203.7 -4131.3,11230 -4114.64,11252.2C-4097.99,11274.5 -4075.08,11293.5 -4045.93,11309.5C-4016.79,11325.5 -3987.29,11338 -3957.45,11347C-3927.61,11356 -3878.33,11369.2 -3809.62,11386.5C-3723.57,11406.7 -3645.66,11428.9 -3575.92,11453.2C-3506.17,11477.5 -3446.83,11507 -3397.9,11541.7C-3348.97,11576.4 -3310.8,11620.2 -3283.39,11673.3C-3255.98,11726.4 -3242.27,11791.5 -3242.27,11868.5Z"/>
            </g>
        </g>
    </g>
</svg>