<svg xmlns="http://www.w3.org/2000/svg" class="fill-current text-rose-500 w-12" xml:space="preserve" viewBox="0 0 64 64">
  <g class="layer">
    <path d="M53 16.244c0-.6-.4-1-1-1H12c-.6 0-1 .4-1 1v10c0 .6.4 1 1 1h40c.6 0 1-.4 1-1v-10zm-34 2.1c1.6 0 2.8 1.3 2.8 2.8s-1.3 2.8-2.8 2.8-2.8-1.3-2.8-2.8 1.2-2.8 2.8-2.8zm4.8 2.5c0-1.4-.6-2.6-1.5-3.6h3.4c.6 1 1 2.3 1 3.6 0 1.5-.6 3.4-1.6 4.4h-3.8c1.5-1 2.5-2.5 2.5-4.4zm17.5-3.6c-.9 1-1.5 2.2-1.5 3.6 0 1.9 1.1 3.4 2.6 4.4h-5.7c-.7-1-1.1-2.9-1.1-4.4 0-1.3.3-2.6.6-3.6h5.1zm3.3 6.8c-1.6 0-2.8-1.3-2.8-2.8s1.3-2.8 2.8-2.8 2.8 1.3 2.8 2.8-1.3 2.8-2.8 2.8zm-10.1 1.2h-7.1c.7-1 1.3-2.7 1.3-4.4 0-1.2-.3-1.6-.7-3.6h6.1c-.3 2-.5 2.6-.5 3.6 0 1.7.3 3.4.9 4.4zm16.5 0h-4.2c1.5-1 2.6-2.5 2.6-4.4 0-1.4-.6-2.6-1.5-3.6H51v8zm-38-8h2.7c-.9 1-1.5 2.2-1.5 3.6 0 1.9 1.1 3.4 2.6 4.4H13v-8z"/>
    <path d="M59 11.244H5c-.6 0-1 .6-1 1.1v22.3c0 2.2 1.8 3.5 4 3.5h48c2.2 0 4-1.3 4-3.5v-22.3c0-.5-.4-1.1-1-1.1zm-1 23.5c0 1.1-.9 1.5-2 1.5H8c-1.1 0-2-.4-2-1.5v-21.5h52v21.5z"/>
    <path d="M64 3.244c0-1.7-1.3-3-3-3H3c-1.7 0-3 1.3-3 3v36c0 1.7 1.3 3 3 3h58c1.7 0 3-1.3 3-3v-36zm-13.3-1-2.4 5H15.6l-2.3-5h37.4zm11.3 37.1c0 .6-.4.9-1 .9H3c-.6 0-1-.3-1-.9v-35.6c0-.6.4-1.5 1-1.5h8.1v.3l3 6c.2.3.5.7.9.7h34c.4 0 .7-.2.9-.5l3-6c0-.1 0 .5.1-.5h8c.6 0 1 .9 1 1.5v35.6z"/>
    <path d="M29.6 29.944c-1.1 0-2 .9-2 2s.9 2 2 2 2-.9 2-2-.9-2-2-2zm0 3c-.6 0-1-.4-1-1s.4-1 1-1 1 .4 1 1-.4 1-1 1zM26.7 30.144c-.2-.2-.5-.1-.7.1l-.9 1-.9-1c-.2-.2-.5-.2-.7-.1-.2.2-.2.5-.1.7l1 1.2-1 1.2c-.2.2-.1.5.1.7.1.1.2.1.3.1.1 0 .3-.1.4-.2l.9-1 .9 1c.1.1.2.2.4.2.1 0 .2 0 .3-.1.2-.2.2-.5.1-.7l-1-1.2 1-1.2c.1-.2.1-.5-.1-.7zM38.6 29.944c-1.1 0-2 .9-2 2s.9 2 2 2 2-.9 2-2-.9-2-2-2zm0 3c-.6 0-1-.4-1-1s.4-1 1-1 1 .4 1 1-.4 1-1 1zM35.7 30.144c-.2-.2-.5-.1-.7.1l-.9 1-.9-1c-.2-.2-.5-.2-.7-.1-.2.2-.2.5-.1.7l1 1.2-1 1.2c-.2.2-.1.5.1.7.1.1.2.1.3.1.1 0 .3-.1.4-.2l.9-1 .9 1c.1.1.2.2.4.2.1 0 .2 0 .3-.1.2-.2.2-.5.1-.7l-1-1.2 1-1.2c.1-.2.1-.5-.1-.7z"/>
  </g>
</svg>
